<svg xmlns="http://www.w3.org/2000/svg" viewBox="0 0 64 64" x="0px" y="0px"><title>brainstrom-discuss-meeting-sharing-talk-community-social</title><g><path d="M57.67,43.19a7.68,7.68,0,1,0-12,0,8.52,8.52,0,0,0-2.8,2.54,10.87,10.87,0,0,0-3.2-2.49,9.84,9.84,0,1,0-14.92,0A10.76,10.76,0,0,0,21.32,46a8.42,8.42,0,0,0-3-2.76,7.68,7.68,0,1,0-12,0A8.45,8.45,0,0,0,2,50.55v6.3H4v-6.3a6.45,6.45,0,0,1,3.85-5.9h0a7.63,7.63,0,0,0,9,0h0a6.41,6.41,0,0,1,3.23,3.18,10.78,10.78,0,0,0-1.26,5.06V62h2V52.89a8.86,8.86,0,0,1,5.47-8.19l.11.08.3.21.4.26.31.18.42.22.32.15.44.19.33.12.47.15.33.1.49.11.32.06.55.08.28,0c.27,0,.55,0,.83,0s.56,0,.84,0l.27,0,.56-.08.32-.06.49-.11.33-.1c.16,0,.31-.09.46-.15l.34-.13a3.93,3.93,0,0,0,.43-.18l.33-.15c.14-.07.28-.14.41-.22a3.37,3.37,0,0,0,.32-.19l.39-.24.31-.22.11-.08a8.88,8.88,0,0,1,5.47,8.19V62h2V52.89a10.71,10.71,0,0,0-1.45-5.39,6.44,6.44,0,0,1,3-2.85h0a7.63,7.63,0,0,0,9,0h0A6.45,6.45,0,0,1,60,50.55v6.3h2v-6.3A8.45,8.45,0,0,0,57.67,43.19ZM12.34,32.76a5.67,5.67,0,0,1,3.69,10h0l-.18.12A5.78,5.78,0,0,1,9,43a3.88,3.88,0,0,1-.33-.23h0a5.67,5.67,0,0,1,3.69-10ZM32.18,29a7.84,7.84,0,1,1-4.53,14.23,4.43,4.43,0,0,1-.54-.43h0A7.83,7.83,0,0,1,32.18,29Zm19.47,3.76a5.67,5.67,0,0,1,3.69,10h0l-.18.12a5.78,5.78,0,0,1-6.84.11,3.71,3.71,0,0,1-.32-.23h0a5.67,5.67,0,0,1,3.69-10Z"/><path d="M8.58,25.67l2.59,3.88A1,1,0,0,0,12,30l.21,0a1,1,0,0,0,.78-.81L13.52,26H18a9,9,0,0,0,7.45-4h3.93l1.73,3.45a1,1,0,0,0,1.78,0L34.62,22h3.93A9,9,0,0,0,46,26h4.48L51,29.17a1,1,0,0,0,.78.81L52,30a1,1,0,0,0,.83-.45l2.59-3.88A9,9,0,0,0,53,8H49.66A10,10,0,0,0,40.5,2h-17a10,10,0,0,0-9.15,6H11A9,9,0,0,0,8.58,25.67ZM53,10a7,7,0,0,1,1.57,13.83.92.92,0,0,0-.6.42l-1.4,2.09-.25-1.51a1,1,0,0,0-1-.83H46a7,7,0,0,1-4.91-2l.22,0,.41,0,.54-.08.4-.08.52-.13.39-.11.51-.19.37-.14L45,21l.34-.17.5-.31.3-.19a6.41,6.41,0,0,0,.52-.39l.24-.17c.24-.21.48-.42.71-.65A9.9,9.9,0,0,0,50.5,12c0-.32,0-.63,0-.94,0-.1,0-.2,0-.31s0-.41-.09-.61,0-.1,0-.14ZM17.85,6.35A7.88,7.88,0,0,1,23.5,4h17A8,8,0,0,1,48,9.34,7.67,7.67,0,0,1,48.5,12a8,8,0,0,1-8,8H34a1,1,0,0,0-.89.55L32,22.76l-1.11-2.21A1,1,0,0,0,30,20H23.5a8,8,0,0,1-8-8A7.77,7.77,0,0,1,16,9.33,8,8,0,0,1,17.85,6.35ZM11,10h2.7c0,.05,0,.09,0,.14a6,6,0,0,0-.09.61c0,.1,0,.21,0,.31,0,.31-.05.62-.05.94s0,.67.05,1a3.06,3.06,0,0,0,0,.32c0,.22.05.44.1.66s.06.25.09.37.09.39.15.57l.13.39c.06.17.12.35.19.52l.18.38.23.48.22.37c.09.15.17.3.27.44s.16.24.25.35.2.28.31.41.18.22.28.33.22.26.34.38l.32.3.37.34c.11.1.23.19.35.28l.4.3.37.24.43.27.39.21c.15.07.3.15.46.21l.41.18.48.17.44.14.49.13.46.09.51.08.47.05.22,0A7,7,0,0,1,18,24H12.67a1,1,0,0,0-1,.83l-.25,1.51L10,24.25a.92.92,0,0,0-.6-.42A7.11,7.11,0,0,1,6.05,22a7,7,0,0,1,5-12Z"/><rect x="20" y="9" width="16" height="2"/><rect x="38" y="9" width="5" height="2"/><rect x="20" y="13" width="4" height="2"/><rect x="26" y="13" width="17" height="2"/><rect x="51" y="16" width="6" height="2"/><rect x="7" y="16" width="6" height="2"/></g></svg>