<svg xmlns:x="http://ns.adobe.com/Extensibility/1.0/" xmlns:i="http://ns.adobe.com/AdobeIllustrator/10.0/" xmlns:graph="http://ns.adobe.com/Graphs/1.0/" xmlns="http://www.w3.org/2000/svg" xmlns:xlink="http://www.w3.org/1999/xlink" xmlns:a="http://ns.adobe.com/AdobeSVGViewerExtensions/3.0/" version="1.1" x="0px" y="0px" viewBox="0 0 100 100" enable-background="new 0 0 100 100" xml:space="preserve"><path d="M83.812,10.115H41.08c-6.721,0-12.189,5.468-12.189,12.189v0.271H16.188C9.468,22.575,4,28.043,4,34.765v25.043  c0,6.72,5.467,12.188,12.188,12.188h3.673v15.89c0,0.809,0.487,1.538,1.235,1.848c0.247,0.103,0.507,0.152,0.765,0.152  c0.521,0,1.032-0.203,1.415-0.586l17.304-17.304h18.344c3.429,0,6.676-1.497,8.968-3.992l8.837,8.836  c0.382,0.383,0.894,0.586,1.415,0.586c0.258,0,0.518-0.05,0.765-0.152c0.747-0.31,1.234-1.039,1.234-1.848v-15.89h3.671  c6.72,0,12.187-5.467,12.187-12.187V22.305C96,15.583,90.532,10.115,83.812,10.115z M58.923,67.995H39.75  c-0.53,0-1.039,0.211-1.414,0.586L23.861,83.056V69.995c0-1.104-0.896-2-2-2h-5.673C11.673,67.995,8,64.322,8,59.808V34.765  c0-4.516,3.673-8.189,8.188-8.189h12.703v20.772c0,6.72,5.468,12.187,12.189,12.187h18.341l5.643,5.643  C63.518,66.936,61.283,67.995,58.923,67.995z M92,47.348c0,4.514-3.673,8.187-8.187,8.187h-5.671c-1.104,0-2,0.896-2,2v13.062  l-7.076-7.075c-0.012-0.011-0.022-0.023-0.034-0.034l-7.367-7.367c-0.375-0.375-0.884-0.586-1.414-0.586H41.08  c-4.516,0-8.189-3.673-8.189-8.187V22.305c0-4.516,3.674-8.189,8.189-8.189h42.732c4.514,0,8.187,3.674,8.187,8.189V47.348z"/></svg>