<svg width="100%" preserveAspectRatio="none" xmlns="http://www.w3.org/2000/svg" xmlns:xlink="http://www.w3.org/1999/xlink" id="visual" version="1.1" viewBox="0 92 900 109"><path d="M0 92L15 92.7C30 93.3 60 94.7 90 99.5C120 104.3 150 112.7 180 117C210 121.3 240 121.7 270 116.3C300 111 330 100 360 99.8C390 99.7 420 110.3 450 112.2C480 114 510 107 540 104.2C570 101.3 600 102.7 630 104.7C660 106.7 690 109.3 720 107.2C750 105 780 98 810 99.8C840 101.7 870 112.3 885 117.7L900 123L900 201L885 201C870 201 840 201 810 201C780 201 750 201 720 201C690 201 660 201 630 201C600 201 570 201 540 201C510 201 480 201 450 201C420 201 390 201 360 201C330 201 300 201 270 201C240 201 210 201 180 201C150 201 120 201 90 201C60 201 30 201 15 201L0 201Z" fill="#aa89f5"/><path d="M0 146L15 150.3C30 154.7 60 163.3 90 163.7C120 164 150 156 180 155.2C210 154.3 240 160.7 270 159C300 157.3 330 147.7 360 142.2C390 136.7 420 135.3 450 138.2C480 141 510 148 540 147.5C570 147 600 139 630 135.7C660 132.3 690 133.7 720 138.5C750 143.3 780 151.7 810 156.3C840 161 870 162 885 162.5L900 163L900 201L885 201C870 201 840 201 810 201C780 201 750 201 720 201C690 201 660 201 630 201C600 201 570 201 540 201C510 201 480 201 450 201C420 201 390 201 360 201C330 201 300 201 270 201C240 201 210 201 180 201C150 201 120 201 90 201C60 201 30 201 15 201L0 201Z" fill="#8b5cf6"/></svg>