<?xml version="1.0" standalone="no"?>
<!DOCTYPE svg PUBLIC "-//W3C//DTD SVG 20010904//EN"
 "http://www.w3.org/TR/2001/REC-SVG-20010904/DTD/svg10.dtd">
<svg version="1.0" xmlns="http://www.w3.org/2000/svg"
 width="500.000000pt" height="500.000000pt" viewBox="0 0 500.000000 500.000000"
 preserveAspectRatio="xMidYMid meet">
<metadata>
Created by potrace 1.14, written by Peter Selinger 2001-2017
</metadata>
<g transform="translate(0.000000,500.000000) scale(0.100000,-0.100000)"
fill="#000000" stroke="none">
<path d="M390 4976 c-169 -46 -318 -201 -365 -382 -13 -51 -15 -301 -15 -2101
l0 -2042 25 -78 c60 -188 212 -330 389 -362 80 -15 4069 -15 4147 -1 140 26
281 133 351 266 73 138 68 -24 68 2224 0 2231 4 2073 -62 2210 -45 94 -144
189 -244 238 l-79 37 -2085 2 c-1625 1 -2095 -1 -2130 -11z m1865 -571 c210
-55 383 -241 456 -490 26 -92 36 -269 19 -361 -16 -89 -66 -245 -97 -308 -18
-36 -22 -51 -13 -56 21 -13 46 0 93 48 88 90 181 272 229 447 23 86 34 254 20
315 -6 24 -10 46 -8 47 1 2 94 -11 207 -27 485 -71 763 -154 826 -248 99 -148
15 -681 -118 -753 -13 -6 -35 6 -90 52 -91 73 -147 101 -216 107 -74 6 -142
-30 -247 -133 -90 -88 -162 -190 -204 -287 -25 -58 -27 -73 -26 -188 1 -106 5
-139 28 -215 58 -190 148 -315 271 -376 83 -40 118 -37 252 27 140 66 172 75
210 59 92 -39 159 -240 185 -549 18 -216 -5 -412 -52 -441 -15 -9 -177 21
-271 51 -102 32 -213 85 -339 160 -276 165 -421 224 -501 204 -86 -20 -109
-54 -109 -163 0 -201 -43 -417 -107 -539 -44 -85 -127 -172 -192 -202 -36 -16
-65 -21 -136 -21 -80 0 -97 3 -150 30 -82 41 -190 151 -237 240 -53 103 -71
182 -65 290 8 146 61 258 178 378 70 72 70 75 12 196 -41 85 -139 193 -209
229 -71 36 -162 54 -249 50 -170 -9 -290 -104 -488 -385 -59 -84 -132 -179
-161 -210 l-54 -58 -6 45 c-29 209 -59 687 -51 805 22 326 127 670 291 952
l18 31 61 -57 c104 -97 271 -170 476 -207 140 -25 405 -24 479 2 30 10 56 26
58 34 2 13 -16 15 -110 16 -90 0 -125 5 -173 22 -151 56 -278 176 -355 337
-59 122 -79 199 -87 330 -14 241 64 453 226 616 81 81 184 141 271 158 73 14
191 12 255 -4z"/>
</g>
</svg>
