<?xml version="1.0" encoding="UTF-8" standalone="no"?>
<!DOCTYPE svg PUBLIC "-//W3C//DTD SVG 1.1//EN" "http://www.w3.org/Graphics/SVG/1.1/DTD/svg11.dtd">
<svg width="100%" height="100%" viewBox="0 0 291 261" version="1.1" xmlns="http://www.w3.org/2000/svg" xmlns:xlink="http://www.w3.org/1999/xlink" xml:space="preserve" xmlns:serif="http://www.serif.com/" style="fill-rule:evenodd;clip-rule:evenodd;stroke-linejoin:round;stroke-miterlimit:2;">
    <g transform="matrix(1,0,0,1,-56.0902,-69.653)">
        <g transform="matrix(1,0,0,1.09559,-10.6161,52.9014)">
            <g transform="matrix(1.14748,0,0,1.14748,-73.1786,-121.065)">
                <g id="TopLeft">
                    <path d="M151.81,158.572C150.922,155.723 150.442,152.69 150.442,149.534C150.442,132.363 164.644,118.83 181.532,118.83C191.687,118.83 200.871,123.723 206.579,131.358C208.145,130.515 209.983,130.128 211.844,130.292C211.844,130.292 228.201,131.747 239.888,134.484C246.771,136.095 252.195,138.598 254.445,140.848C256.555,142.959 258.172,146.375 258.596,150.618C259.253,157.178 257.184,166.161 254.352,171.011C251.474,175.938 247.099,177.811 243.831,177.9C241.341,177.968 238.72,177.318 236.261,175.232C235.183,174.319 233.373,173.342 232.682,172.983C230.849,174.002 228.454,176.096 226.63,178.455C225.634,179.743 224.68,181.085 224.613,182.459C224.502,184.775 225.221,187.867 226.721,190.523C227.524,191.944 228.479,193.383 229.951,194.051C230.887,193.735 232.583,193.151 233.598,192.739C236.019,191.754 238.277,190.927 239.773,190.633C242.935,190.012 246.267,190.713 249.127,193.004C251.95,195.266 254.118,199.848 254.444,201.807C257.632,220.961 257.184,229.261 256.489,231.263C255.07,235.343 252.036,236.492 250.176,236.96C248.649,237.344 246.979,237.449 245.283,236.984C232.333,235.61 222.46,231.161 212.845,227.173C211.714,237.404 207.914,243.507 203.914,247.115C197.348,253.039 189.321,253.517 184.035,252.336C172.974,249.864 161.282,237.444 164.033,224.064C164.76,220.528 166.448,216.858 169.537,213.32C168.497,213.292 167.399,213.534 166.384,213.635C163.126,213.959 160.104,214.301 157.859,214.078C157.018,213.994 156.486,214.598 155.886,215.09C154.585,216.158 153.421,217.496 152.255,218.842C149.219,222.348 146.152,225.859 142.715,228.013C140.234,229.569 137.048,229.845 134.29,228.744C131.532,227.643 129.591,225.32 129.158,222.601C128.492,218.42 126.749,204.82 126.986,200.27C127.758,185.406 132.956,169.851 139.819,160.712C141.138,158.956 143.173,157.755 145.47,157.38C147.676,157.019 149.946,157.448 151.81,158.572ZM248.261,221.276C248.315,221.281 248.369,221.285 248.423,221.29C250.307,221.452 252.082,222.169 253.48,223.332C251.741,221.885 249.97,221.288 248.259,221.241C247.93,217.114 247.191,211.191 245.828,203.002C245.615,201.722 243.647,198.008 241.607,198.409C238.887,198.944 232.877,202.304 229.507,202.209C219.888,200.648 215.574,189.026 215.907,182.109C216.24,175.193 224.893,167.56 229.507,165.509C233.348,163.802 237.923,165.785 242.192,169.404C247.252,173.695 253.204,151.409 248.007,146.209C242.81,141.01 211.007,138.209 211.007,138.209C214.956,149.645 202.237,166.794 199.067,164.353C201.392,160.766 203.907,154.148 203.907,149.534C203.907,136.978 193.881,126.784 181.532,126.784C169.183,126.784 159.157,136.978 159.157,149.534C159.157,162.09 169.183,172.284 181.532,172.284C182.865,172.284 184.171,172.166 185.44,171.938C187.387,172.717 180.557,178.099 174.607,176.609C165.221,174.26 158.535,172.647 147.007,165.209C140.867,173.386 136.381,187.348 135.691,200.647C135.47,204.888 137.161,217.559 137.782,221.456C144.761,217.082 149.157,205.211 158.803,206.17C164.635,206.75 177.113,201.349 181.164,214.038C163.89,226.148 175.441,242.226 186.107,244.609C192.332,246 204.915,243.174 204.457,219.531C205.532,215.85 205.585,215.784 210.661,217.606C221.753,221.847 232.381,227.902 247.607,229.209C248.28,229.769 248.773,227.727 248.261,221.276Z" style="fill:rgb(18,18,18);"/>
                    <path d="M174.607,176.609C180.557,178.099 187.387,172.717 185.44,171.938C184.171,172.166 182.865,172.284 181.532,172.284C169.183,172.284 159.157,162.09 159.157,149.534C159.157,136.978 169.183,126.784 181.532,126.784C193.881,126.784 203.907,136.978 203.907,149.534C203.907,154.148 201.392,160.766 199.067,164.353C202.237,166.794 214.956,149.645 211.007,138.209C211.007,138.209 242.81,141.01 248.007,146.209C253.204,151.409 247.252,173.695 242.192,169.404C237.923,165.785 233.348,163.802 229.507,165.509C224.893,167.56 216.24,175.193 215.907,182.109C215.574,189.026 219.888,200.648 229.507,202.209C232.877,202.304 238.887,198.944 241.607,198.409C243.647,198.008 245.615,201.722 245.828,203.002C249.331,224.048 248.71,230.128 247.607,229.209C232.381,227.902 221.753,221.847 210.661,217.606C205.585,215.784 205.532,215.85 204.457,219.531C204.915,243.174 192.332,246 186.107,244.609C175.441,242.226 163.89,226.148 181.164,214.038C177.113,201.349 164.635,206.75 158.803,206.17C149.157,205.211 144.761,217.082 137.782,221.456C137.161,217.559 135.47,204.888 135.691,200.647C136.381,187.348 140.867,173.386 147.007,165.209C158.535,172.647 165.221,174.26 174.607,176.609Z" style="fill:rgb(34,211,238);"/>
                </g>
            </g>
            <g transform="matrix(1.14665,0.0436195,-0.0436195,1.14665,-65.8062,-128.107)">
                <g id="Layer3">
                    <path d="M240.575,161.356C240.226,159.26 239.914,156.974 239.852,154.75C239.687,148.772 241.258,143.229 244.807,139.642C249.09,135.312 261.544,130.361 272.526,127.93C280.59,126.145 287.853,125.869 290.9,126.698C296.322,128.172 299.445,132.13 299.383,138.227C299.333,143.194 295.784,150.986 295.158,153.935C294.672,156.223 297.027,159.225 303.425,159.13C306.979,159.077 309.56,158.976 310.972,157.636C311.939,156.718 311.546,155.297 311.266,153.588C310.714,150.215 307.349,142.01 307.585,136.392C307.82,130.814 310.531,126.742 315.29,124.663C325.192,120.336 335.6,121.435 345.136,126.716C357.033,133.302 367.63,147.003 372.657,163.074C378.211,180.833 376.989,201.255 364.489,217.452C360.838,222.183 349.647,229.325 340.894,232.606C335.715,234.547 331.095,235.031 328.385,234.526C324.705,233.841 322.308,231.952 320.929,229.383C319.96,227.577 319.343,225.077 320.367,221.739C321.897,216.75 322.402,210.182 318.704,205.681C316.467,202.96 312.553,201.429 306.715,201.287C298.877,201.097 295.642,207.108 294.662,212.479C294.272,214.617 294.228,216.732 294.51,218.562C294.662,219.551 294.756,220.45 295.206,220.991C297.789,224.092 298.19,227.12 297.605,229.799C296.926,232.915 294.48,236.207 289.695,238.344C284.388,240.713 274.895,241.883 266.313,240.465C259.968,239.416 254.218,236.965 250.484,233.327C249.272,232.146 248.487,230.653 248.235,229.047L243.713,200.221C234.857,204.882 224.589,202.157 218.71,196.276C217.139,194.704 214.097,189.241 213.573,182.849C213.036,176.306 214.98,169.167 221.246,164.492C227.232,160.028 233.86,159.805 240.046,161.229C240.218,161.269 240.394,161.311 240.575,161.356ZM288.359,134.324C282.608,132.76 257.191,138.951 251.255,144.951C245.711,150.556 250.416,164.427 250.393,168.587C250.342,177.88 236.815,163.118 226.731,170.639C218.91,176.473 223.157,188.883 225.165,190.891C229.004,194.732 236.102,196.352 241.553,191.901C244.616,189.4 250.318,183.943 251.757,195.334L256.861,227.866C266.101,236.867 294.353,233.153 288.257,225.834C282.438,218.848 285.214,192.806 307.007,193.334C330.086,193.894 332.414,211.911 328.757,223.834C326.073,232.586 351.968,219.909 357.378,212.9C384.712,177.481 348.857,118.792 319.007,131.834C312.732,134.576 319.161,147.942 319.884,152.359C321.406,161.649 316.747,166.887 303.507,167.084C288.665,167.306 285.477,157.78 286.604,152.474C287.419,148.635 294.11,135.888 288.359,134.324Z" style="fill:rgb(18,18,18);"/>
                    <path d="M288.359,134.324C282.608,132.76 257.191,138.951 251.255,144.951C245.711,150.556 250.416,164.427 250.393,168.587C250.342,177.88 236.815,163.118 226.731,170.639C218.91,176.473 223.157,188.883 225.165,190.891C229.004,194.732 236.102,196.352 241.553,191.901C244.616,189.4 250.318,183.943 251.757,195.334L256.861,227.866C266.101,236.867 294.353,233.153 288.257,225.834C282.438,218.848 285.214,192.806 307.007,193.334C330.086,193.894 332.414,211.911 328.757,223.834C326.073,232.586 351.968,219.909 357.378,212.9C384.712,177.481 348.857,118.792 319.007,131.834C312.732,134.576 319.161,147.942 319.884,152.359C321.406,161.649 316.747,166.887 303.507,167.084C288.665,167.306 285.477,157.78 286.604,152.474C287.419,148.635 294.11,135.888 288.359,134.324Z" style="fill:rgb(139,92,246);"/>
                </g>
            </g>
            <g transform="matrix(1.1465,0.0475726,-0.0475726,1.1465,-65.9536,-137.093)">
                <g id="Layer5">
                    <path d="M286.582,232.454C285.626,230.631 283.152,226.11 282.26,221.042C281.381,216.043 281.975,210.659 285.31,205.94C288.502,201.422 294.44,197.092 305.705,195.255C328.281,191.573 339.76,213.211 332.153,230.445C332.898,230.495 333.845,230.527 334.589,230.443C335.243,230.37 335.921,230.261 336.619,230.122C337.459,229.954 338.326,229.741 339.214,229.486C345.779,227.605 353.348,223.561 360.044,217.77C361.847,216.21 364.285,215.419 366.75,215.594C369.215,215.768 371.475,216.892 372.965,218.685C377.748,224.437 378.592,230.875 377.611,237.66C376.929,242.379 375.232,247.29 374.472,252.055C373.517,258.042 369.213,262.805 364.38,264.348C360.441,265.606 355.635,265.459 350.774,261.615C349.739,260.797 348.797,260.28 347.842,260.273C346.021,260.261 344.579,261.725 344.323,262.98C343.754,265.777 343.511,267.938 345.149,269.001C347.332,270.417 350.732,269.899 354.774,268.773C355.455,268.583 356.158,268.47 356.867,268.436C358.502,268.358 360.178,268.108 361.668,268.175C364.345,268.296 366.737,269.04 368.807,270.542C371.071,272.185 373.651,275.17 373.962,281.677C374.542,293.807 371.364,302.489 366.052,308.777C360.63,315.197 352.809,319.285 343.302,321.574C333.176,324.012 323.451,323.609 317.602,321.475C312.221,319.512 309.158,316.104 308.142,312.315C307.214,308.85 307.756,304.332 312.282,299.365C313.733,297.774 312.841,295.324 311.732,293.24C310.466,290.86 308.314,288.584 305.299,288.539C300.773,288.472 296.586,290.444 294.422,293.236C293.295,294.688 293.081,296.516 294.811,297.947C298.069,300.64 299.715,305.104 296.467,310.445C294.754,313.264 290.823,316.959 285.273,319.614C277.682,323.245 267.195,325.037 256.963,320.757C254.135,319.574 252.227,317.095 251.961,314.259C251.262,306.817 247.29,295.524 247.158,291.22C246.932,283.87 252.196,281.521 256.077,281.281C258.801,281.113 259.65,280.31 260.651,279.612C262.125,278.585 263.707,277.633 265.889,276.862C268.2,276.044 270.69,275.188 272.78,273.987C273.829,273.384 274.981,272.783 274.851,271.477C274.405,266.971 271.008,265.209 267.634,264.483C262.934,263.47 256.796,264.202 255.928,264.313C255.522,264.409 255.107,264.479 254.685,264.521C246.686,265.315 245.254,258.477 245.148,257.817C245.145,257.796 245.138,257.684 245.14,257.499C243.694,246.766 245.713,249.909 247.036,236.52C247.297,233.877 248.982,231.516 251.53,230.225C254.079,228.934 257.154,228.883 259.732,230.088C269.152,234.492 277.796,235.373 283.657,233.797C284.692,233.518 285.94,232.832 286.582,232.454ZM253.806,256.6C253.76,256.612 253.759,256.616 253.807,256.612C253.807,256.608 253.806,256.604 253.806,256.6ZM253.806,256.6C254.902,256.316 281.663,251.877 283.529,270.7C284.318,278.656 276.047,281.779 268.983,284.277C264.69,285.796 264.486,288.731 256.599,289.219C253.813,289.391 259.786,304.396 260.642,313.52C276.181,320.02 292.508,306.815 288.936,303.862C277.754,294.617 290.293,280.358 305.507,280.584C318.141,280.772 325.903,296.811 318.963,304.426C310.484,313.73 325.181,317.724 341.14,313.882C356.123,310.274 366.19,301.6 365.257,282.084C364.898,274.582 360.964,276.203 357.258,276.381C342.793,280.41 333.042,274.927 335.757,261.584C337.017,255.392 346.78,247.892 356.507,255.584C361.076,259.198 365.118,255.553 365.85,250.968C367.358,241.506 372.616,231.469 366.011,223.526C346.561,240.347 320.5,244.088 323.254,229.169C329.879,217.252 323.206,200.472 307.174,203.086C280.795,207.388 293.492,226.983 294.8,229.666C299.777,239.873 279.549,248.318 255.714,237.175C254.491,249.551 252.442,246.567 253.806,256.6Z" style="fill:rgb(18,18,18);"/>
                    <path d="M255.714,237.175C254.491,249.556 252.44,246.565 253.807,256.612C252.607,256.731 281.584,251.085 283.529,270.7C284.318,278.656 276.047,281.779 268.983,284.277C264.69,285.796 264.486,288.731 256.599,289.219C253.813,289.391 259.786,304.396 260.642,313.52C276.181,320.02 292.508,306.815 288.936,303.862C277.754,294.617 290.293,280.358 305.507,280.584C318.141,280.772 325.903,296.811 318.963,304.426C310.484,313.73 325.181,317.724 341.14,313.882C356.123,310.274 366.19,301.6 365.257,282.084C364.898,274.582 360.964,276.203 357.258,276.381C342.793,280.41 333.042,274.927 335.757,261.584C337.017,255.392 346.78,247.892 356.507,255.584C361.076,259.198 365.118,255.553 365.85,250.968C367.358,241.506 372.616,231.469 366.011,223.526C346.561,240.347 320.5,244.088 323.254,229.169C329.879,217.252 323.206,200.472 307.174,203.086C280.795,207.388 293.492,226.983 294.8,229.666C299.777,239.873 279.549,248.318 255.714,237.175Z" style="fill:rgb(99,102,241);"/>
                </g>
            </g>
            <g id="Layer4" transform="matrix(0.8,0,0,0.8,2,-2)">
                <path d="M270.263,211.982C271.077,211.944 271.821,211.921 272.442,211.921C280.271,211.921 289.503,214.334 295.695,218.74C301.55,222.906 305.095,228.63 305.095,235.585C305.095,242.224 301.693,248.138 295.98,252.56C290.551,256.761 282.894,259.431 275.818,260.008C275.355,262.261 274.673,266.055 274.641,269.009C274.535,278.784 276.249,290.181 277.562,297.607C278.512,302.983 275.168,308.222 269.576,310.119C269.576,310.119 251.678,316.19 251.69,316.185C236.181,322.289 226.452,318.052 220.833,312.125C217.413,308.517 215.293,303.614 214.797,298.196C214.193,291.586 216.07,284.235 219.585,278.839C222.943,273.684 224.422,268.079 221.428,264.614C219.913,262.86 217.125,262.574 213.539,262.951C210.572,263.263 208.447,263.697 207.272,265.012C205.008,267.545 205.777,271.28 206.155,274.824C207.043,283.136 209.069,291.32 208.471,296.036C207.869,300.779 205.336,305.072 200.654,308.542C194.784,312.891 183.811,316.078 170.316,316.494C147.332,317.204 116.622,310.603 98.504,296.428C84.262,285.285 76.77,269.959 83.005,250.175C85.388,242.385 89.676,237.683 94.384,234.854C101.602,230.518 110.782,230.224 119.975,233.409C123.99,234.799 127.711,235.915 131.057,236.394C132.533,236.605 133.846,236.879 134.926,236.46C135.539,236.222 135.4,235.427 135.666,234.588C136.439,232.154 136.738,229.039 136.706,225.143C136.668,220.425 136.036,216.127 134.406,212.81C133.799,211.575 133.285,210.366 132.035,210.029C130.975,209.744 129.746,210.002 128.299,210.403C125.171,211.27 121.672,213.051 117.667,215.709C106.875,222.87 98.385,221.401 93.005,218.189C88.07,215.243 83.936,209.009 83.756,199.964C83.563,190.273 87.76,176.115 96.477,164.026C110.231,144.955 134.168,130.892 166.696,143.902C170.147,145.283 172.732,148.011 173.731,151.327C174.73,154.643 174.037,158.194 171.844,160.991C168.08,165.793 165.075,171.365 163.866,176.849C163.008,180.742 162.927,184.602 165.137,187.673C167.029,190.303 170.458,192.064 175.355,193.247C181.202,194.002 186.106,194.294 189.029,191.202C192.977,187.027 193.072,179.553 191.362,168.044C190.735,163.826 192.733,159.64 196.544,157.187C200.355,154.734 205.345,154.421 209.488,156.375C231.229,166.632 248.719,171.439 263.371,172.138C266.686,172.296 269.796,173.651 272.015,175.904C274.234,178.158 275.38,181.124 275.2,184.149C274.641,193.573 271.884,202.842 270.263,211.982ZM256.569,223.933C256.548,210.741 261.901,197.294 262.719,183.532C246.703,182.767 227.512,177.722 203.749,166.511C208.529,198.679 195.232,207.418 172.904,204.452C142.971,197.654 147.974,171.835 161.679,154.352C101.194,130.16 79.194,227.134 110.316,206.48C137.202,188.638 149.032,203.439 149.206,225.059C149.417,251.292 135.193,250.884 115.539,244.076C107.002,241.118 98.421,242.165 95.037,253.27C78.351,306.031 193.363,315.925 196.054,294.723C197.381,284.263 182.372,254.742 212.109,251.616C234.485,249.264 240.931,268.396 230.329,284.671C223.988,294.403 226.117,313.985 247.004,305.604L265.221,299.424C262.303,282.912 257.69,247.986 272.13,248.695C280.827,249.123 292.595,243.766 292.595,235.585C292.595,227.405 281.15,223.331 272.442,223.331C267.164,223.331 258.738,225.023 256.569,223.933Z" style="fill:rgb(18,18,18);"/>
                <path d="M256.569,223.933C258.738,225.023 267.164,223.331 272.442,223.331C281.15,223.331 292.595,227.405 292.595,235.585C292.595,243.766 280.827,249.123 272.13,248.695C257.69,247.986 262.303,282.912 265.221,299.424L247.004,305.604C226.117,313.985 223.988,294.403 230.329,284.671C240.931,268.396 234.485,249.264 212.109,251.616C182.372,254.742 197.381,284.263 196.054,294.723C193.363,315.925 78.351,306.031 95.037,253.27C98.421,242.165 107.002,241.118 115.539,244.076C135.193,250.884 149.417,251.292 149.206,225.059C149.032,203.439 137.202,188.638 110.316,206.48C79.194,227.134 101.194,130.16 161.679,154.352C147.974,171.835 142.971,197.654 172.904,204.452C195.232,207.418 208.529,198.679 203.749,166.511C227.512,177.722 246.703,182.767 262.719,183.532C261.901,197.294 256.548,210.741 256.569,223.933Z" style="fill:rgb(14,165,233);"/>
            </g>
        </g>
    </g>
</svg>
