<svg width="100%" preserveAspectRatio="none" xmlns="http://www.w3.org/2000/svg" xmlns:xlink="http://www.w3.org/1999/xlink" id="visual" version="1.1" viewBox="0 107 900 94"><path d="M0 140L15 134.2C30 128.3 60 116.7 90 111.7C120 106.7 150 108.3 180 114C210 119.7 240 129.3 270 127.8C300 126.3 330 113.7 360 110.8C390 108 420 115 450 123.3C480 131.7 510 141.3 540 138.8C570 136.3 600 121.7 630 120.8C660 120 690 133 720 139.8C750 146.7 780 147.3 810 140.8C840 134.3 870 120.7 885 113.8L900 107L900 201L885 201C870 201 840 201 810 201C780 201 750 201 720 201C690 201 660 201 630 201C600 201 570 201 540 201C510 201 480 201 450 201C420 201 390 201 360 201C330 201 300 201 270 201C240 201 210 201 180 201C150 201 120 201 90 201C60 201 30 201 15 201L0 201Z" fill="#121212"/></svg>