<?xml version="1.0" encoding="UTF-8" standalone="no"?>
<!DOCTYPE svg PUBLIC "-//W3C//DTD SVG 1.1//EN" "http://www.w3.org/Graphics/SVG/1.1/DTD/svg11.dtd">
<svg width="100%" height="100%" viewBox="0 0 960 198" version="1.1" xmlns="http://www.w3.org/2000/svg" xmlns:xlink="http://www.w3.org/1999/xlink" xml:space="preserve" xmlns:serif="http://www.serif.com/" style="fill-rule:evenodd;clip-rule:evenodd;stroke-linejoin:round;stroke-miterlimit:2;">
    <g transform="matrix(1,0,0,1,-300.236,-307.51)">
        <g id="layered-waves-haikei--12-.svg" serif:id="layered-waves-haikei (12).svg" transform="matrix(1,0,0,1,780.236,577.51)">
            <g transform="matrix(1,0,0,1,-480,-270)">
                <path d="M0,114L22.8,119.5C45.7,125 91.3,136 137,147C182.7,158 228.3,169 274,161.3C319.7,153.7 365.3,127.3 411.2,129C457,130.7 503,160.3 548.8,162.3C594.7,164.3 640.3,138.7 686,139.7C731.7,140.7 777.3,168.3 823,181.3C868.7,194.3 914.3,192.7 937.2,191.8L960,191L960,0L0,0L0,114Z" style="fill:rgb(139,92,246);fill-rule:nonzero;"/>
                <path d="M0,132L22.8,126.7C45.7,121.3 91.3,110.7 137,103C182.7,95.3 228.3,90.7 274,85.7C319.7,80.7 365.3,75.3 411.2,78.7C457,82 503,94 548.8,96.8C594.7,99.7 640.3,93.3 686,99.2C731.7,105 777.3,123 823,121.2C868.7,119.3 914.3,97.7 937.2,86.8L960,76L960,0L0,0L0,132Z" style="fill:rgb(119,98,244);fill-rule:nonzero;"/>
                <path d="M0,84L22.8,77.8C45.7,71.7 91.3,59.3 137,58.7C182.7,58 228.3,69 274,74.2C319.7,79.3 365.3,78.7 411.2,72.3C457,66 503,54 548.8,49.5C594.7,45 640.3,48 686,49.3C731.7,50.7 777.3,50.3 823,53.3C868.7,56.3 914.3,62.7 937.2,65.8L960,69L960,0L0,0L0,84Z" style="fill:rgb(99,102,241);fill-rule:nonzero;"/>
            </g>
        </g>
    </g>
</svg>
