<?xml version="1.0" encoding="UTF-8" standalone="no"?>
<!DOCTYPE svg PUBLIC "-//W3C//DTD SVG 1.1//EN" "http://www.w3.org/Graphics/SVG/1.1/DTD/svg11.dtd">
<svg width="100%" height="100%" viewBox="0 0 960 153" version="1.1" xmlns="http://www.w3.org/2000/svg" xmlns:xlink="http://www.w3.org/1999/xlink" xml:space="preserve" xmlns:serif="http://www.serif.com/" style="fill-rule:evenodd;clip-rule:evenodd;stroke-linejoin:round;stroke-miterlimit:2;">
    <g transform="matrix(1,0,0,1,-832.451,-424.993)">
        <g id="layered-waves-haikei--11-.svg" serif:id="layered-waves-haikei (11).svg" transform="matrix(1,0,0,1,1312.45,307.156)">
            <g transform="matrix(1,0,0,1,-480,-270)">
                <clipPath id="_clip1">
                    <rect x="0" y="0" width="960" height="540"/>
                </clipPath>
                <g clip-path="url(#_clip1)">
                    <path d="M0,422L22.8,422.8C45.7,423.7 91.3,425.3 137,426.8C182.7,428.3 228.3,429.7 274,428.3C319.7,427 365.3,423 411.2,424C457,425 503,431 548.8,427.5C594.7,424 640.3,411 686,402C731.7,393 777.3,388 823,393.7C868.7,399.3 914.3,415.7 937.2,423.8L960,432L960,541L0,541L0,422Z" style="fill:rgb(139,92,246);fill-rule:nonzero;"/>
                    <path d="M0,399L22.8,400.5C45.7,402 91.3,405 137,416.2C182.7,427.3 228.3,446.7 274,451.7C319.7,456.7 365.3,447.3 411.2,443.5C457,439.7 503,441.3 548.8,435.5C594.7,429.7 640.3,416.3 686,416.3C731.7,416.3 777.3,429.7 823,430.5C868.7,431.3 914.3,419.7 937.2,413.8L960,408L960,541L0,541L0,399Z" style="fill:rgb(119,98,244);fill-rule:nonzero;"/>
                    <path d="M0,465L22.8,466.7C45.7,468.3 91.3,471.7 137,470.8C182.7,470 228.3,465 274,467.5C319.7,470 365.3,480 411.2,481.5C457,483 503,476 548.8,477C594.7,478 640.3,487 686,483.8C731.7,480.7 777.3,465.3 823,459.3C868.7,453.3 914.3,456.7 937.2,458.3L960,460L960,541L0,541L0,465Z" style="fill:rgb(99,102,241);fill-rule:nonzero;"/>
                </g>
            </g>
        </g>
    </g>
</svg>
