<svg width="32" height="32" viewBox="0 0 32 32" fill="none" xmlns="http://www.w3.org/2000/svg">
<path d="M0 5.16923C0 2.31434 2.14903 0 4.8 0H27.2C29.851 0 32 2.31434 32 5.16923V26.8308C32 29.6857 29.851 32 27.2 32H4.8C2.14903 32 0 29.6857 0 26.8308V5.16923Z" fill="#121212"/>
<path fill-rule="evenodd" clip-rule="evenodd" d="M8.47796 8.41496C8.4768 8.4151 8.47564 8.41538 8.47448 8.41552L8.90192 7.99763C8.75464 8.02983 8.60307 8.04649 8.44836 8.04649C7.01514 8.04649 5.85153 6.60681 5.85153 4.83355C5.85153 3.06029 7.01514 1.6206 8.44836 1.6206C9.88158 1.6206 11.0452 3.06029 11.0452 4.83355C11.0452 5.48518 10.888 6.09161 10.6183 6.5982L11.0422 6.79549C11.126 6.73137 11.1729 6.69423 11.1729 6.69423C11.8396 5.62909 12.1309 4.48768 11.8692 3.23414C11.8692 3.23414 15.5603 3.62972 16.1634 4.36396C16.7666 5.09835 16.0758 8.24577 15.4885 7.63976C14.9931 7.12865 14.4621 6.84859 14.0163 7.08967C13.4808 7.37933 12.4766 8.45732 12.4379 9.43406C12.3993 10.4109 12.8999 12.0523 14.0163 12.2727C14.4074 12.2862 15.105 11.8116 15.4206 11.7361C15.6574 11.6794 15.8858 12.204 15.9105 12.3847C16.3171 15.357 16.245 16.2157 16.117 16.0859C14.3499 15.9013 13.0405 14.7078 11.7532 14.1087C11.164 14.2621 10.8798 14.6851 10.755 15.0267C11.3392 17.9044 9.7018 18.4573 8.97933 18.2608C7.74144 17.9243 6.60313 15.7766 8.60794 14.0663C9.18789 12.4095 7.81909 12.9694 6.24033 12.5552C5.12082 12.4198 4.00375 13.1732 3.19377 13.791C3.1217 13.2406 3.10243 12.6511 3.12808 12.0522C3.20816 10.174 3.72881 8.20213 4.44141 7.0473C5.77934 8.09776 6.5227 8.7162 7.64465 8.6573C7.87793 8.64516 8.1668 8.55308 8.47796 8.41496Z" fill="#22D3EE"/>
<path fill-rule="evenodd" clip-rule="evenodd" d="M5.65818 6.99462C5.33844 6.36898 5.15332 5.6281 5.15332 4.83355C5.15332 2.58745 6.63296 0.770974 8.44836 0.770974C9.65376 0.770974 10.7112 1.57188 11.2857 2.76766C11.3013 2.73857 11.3186 2.71046 11.3374 2.68363C11.484 2.47391 11.7051 2.36361 11.9305 2.38776C11.9305 2.38776 13.7961 2.58901 15.1291 2.96891C15.847 3.17341 16.4226 3.47761 16.6572 3.76332C16.8773 4.03109 17.0357 4.46579 17.0799 5.00415C17.1531 5.89276 16.9255 7.10986 16.6102 7.76672C16.3441 8.32118 15.9698 8.55604 15.6676 8.56607C15.459 8.57299 15.2429 8.5004 15.0369 8.28785C14.8914 8.13772 14.7433 8.01133 14.5951 7.92913C14.4908 7.87123 14.392 7.81629 14.3 7.86614C14.0511 8.00073 13.6786 8.36482 13.4084 8.79006C13.2689 9.00953 13.1446 9.24086 13.1353 9.47502C13.1211 9.83246 13.2118 10.3095 13.402 10.7192C13.5515 11.0414 13.765 11.3344 14.0756 11.4216C14.1935 11.407 14.3415 11.319 14.4901 11.2476C14.7993 11.0989 15.1002 10.9468 15.286 10.9024C15.5503 10.8391 15.8237 10.9209 16.0628 11.1539C16.3496 11.4336 16.5661 12.0031 16.5993 12.2452C16.8367 13.9802 16.914 15.0249 16.9157 15.584C16.9169 15.9597 16.878 16.1934 16.8433 16.3151C16.7202 16.746 16.4782 16.8721 16.3167 16.9216C16.1985 16.9577 16.0705 16.9651 15.9406 16.9189C14.2564 16.7015 12.9647 15.6392 11.7201 15.0079C11.626 15.0569 11.5531 15.1198 11.4983 15.1873C11.6956 16.46 11.496 17.3399 11.1725 17.934C10.569 19.043 9.45796 19.2616 8.82706 19.0901C7.79889 18.8105 6.83688 17.611 6.81796 16.1986C6.80717 15.3956 7.08281 14.4847 7.90033 13.6555C7.75688 13.6315 7.58082 13.6052 7.42762 13.5914C7.31852 13.5817 7.20479 13.5713 7.08745 13.5588C6.78802 13.5269 6.46607 13.4805 6.13553 13.3968C5.18501 13.3015 4.25258 13.9863 3.56458 14.5109C3.36601 14.6623 3.11834 14.6825 2.9049 14.5646C2.69158 14.4467 2.54105 14.2063 2.50426 13.9247C2.42476 13.318 2.4026 12.6683 2.43068 12.0081C2.51842 9.95265 3.10325 7.80075 3.88305 6.53718C4.1031 6.18058 4.51209 6.09161 4.82 6.33339C5.13208 6.57842 5.40587 6.80086 5.65818 6.99462ZM16.2084 15.2436C16.339 15.2645 16.4621 15.3301 16.5637 15.433C16.445 15.3127 16.3251 15.2561 16.2084 15.2432C16.1822 14.6604 16.0963 13.7434 15.9105 12.3847C15.8858 12.204 15.6574 11.6794 15.4206 11.7361C15.105 11.8116 14.4074 12.2862 14.0163 12.2727C12.8999 12.0523 12.3993 10.4109 12.4379 9.43406C12.4766 8.45732 13.4808 7.37933 14.0163 7.08967C14.4621 6.84859 14.9931 7.12865 15.4885 7.63976C16.0758 8.24577 16.7666 5.09835 16.1634 4.36396C15.5603 3.62972 11.8692 3.23414 11.8692 3.23414C12.1309 4.48768 11.8396 5.62909 11.1729 6.69423C11.1729 6.69423 11.126 6.73137 11.0422 6.79549L10.6183 6.5982C10.888 6.09161 11.0452 5.48518 11.0452 4.83355C11.0452 3.06029 9.88158 1.6206 8.44836 1.6206C7.01514 1.6206 5.85153 3.06029 5.85153 4.83355C5.85153 6.60681 7.01514 8.04649 8.44836 8.04649C8.60307 8.04649 8.75464 8.02983 8.90192 7.99763L8.47448 8.41552L8.47796 8.41496C8.1668 8.55308 7.87793 8.64516 7.64465 8.6573C6.5227 8.7162 5.77934 8.09776 4.44141 7.0473C3.72881 8.20213 3.20816 10.174 3.12808 12.0522C3.10243 12.6511 3.1217 13.2406 3.19377 13.791C4.00375 13.1732 5.12082 12.4198 6.24033 12.5552C7.81909 12.9694 9.18789 12.4095 8.60794 14.0663C6.60313 15.7766 7.74144 17.9243 8.97933 18.2608C9.7018 18.4573 11.3392 17.9044 10.755 15.0267C10.8798 14.6851 11.164 14.2621 11.7532 14.1087C13.0405 14.7078 14.3499 15.9013 16.117 16.0859C16.1865 16.1564 16.2395 15.9355 16.2084 15.2436Z" fill="#121212"/>
<path fill-rule="evenodd" clip-rule="evenodd" d="M20.8152 3.55895C20.15 3.3026 17.164 3.99478 16.4506 4.79077C15.7844 5.53437 16.485 7.07507 16.2671 8.07722C15.3896 9.23176 14.7028 7.22455 13.5003 8.20463C12.5677 8.96488 13.0194 10.7219 13.2466 11.015C13.6808 11.5757 14.5029 11.8489 15.1543 11.2654C15.5203 10.9375 16.0291 10.6084 16.3323 11.8119L16.8133 16.3774C17.8593 17.693 21.1672 17.3648 20.482 16.3045C19.8279 15.2925 20.2431 11.6838 22.7828 11.9032C25.4724 12.1357 25.6807 14.6608 25.2123 16.2971C24.8686 17.4982 27.6451 15.9989 28.6905 14.9972C29.7959 12.8071 29.197 8.70267 28.7423 6.61923C28.1879 3.92301 25.1549 3.80318 24.3983 3.41729C23.6587 3.04034 24.3597 5.66198 24.4285 6.28206C24.5734 7.58623 24.0116 8.28464 22.4668 8.22344C20.7351 8.155 20.3967 6.8068 20.5468 6.07528C20.6553 5.54601 21.4804 3.81529 20.8152 3.55895Z" fill="#8B5CF6"/>
<path fill-rule="evenodd" clip-rule="evenodd" d="M15.6111 7.60549C15.6122 7.4628 15.5961 7.31062 15.5795 7.15534C15.5394 6.77613 15.4788 6.38375 15.4594 6.01635C15.4209 5.28364 15.5478 4.63718 15.9658 4.17055C16.3774 3.71123 17.4285 3.23533 18.4887 2.95781C19.5613 2.67695 20.6315 2.60849 21.0197 2.75804C21.5433 2.95988 21.7965 3.45318 21.7726 4.16193C21.7497 4.84241 21.3108 5.88707 21.2288 6.28717C21.1403 6.71857 21.4569 7.34347 22.4777 7.38394C22.8432 7.39836 23.1399 7.36823 23.3717 7.27814C23.5027 7.22719 23.6059 7.16279 23.6681 7.05654C23.7671 6.88696 23.7639 6.65431 23.7331 6.37625C23.6944 6.02671 23.4569 5.04522 23.3853 4.31606C23.3357 3.80947 23.3792 3.38231 23.4756 3.13863C23.5927 2.84269 23.7772 2.66588 24.0017 2.58374C24.1741 2.52066 24.3945 2.50611 24.6645 2.6437C25.0379 2.83413 25.974 2.95485 26.8842 3.36489C28.0145 3.87395 29.0824 4.77432 29.4232 6.42176C29.708 7.72775 30.0443 9.79286 30.0207 11.7299C30.0036 13.1251 29.7934 14.4535 29.2947 15.4418C29.253 15.5243 29.1997 15.5973 29.1368 15.6574C28.3209 16.4393 26.55 17.4702 25.6978 17.5728C25.1535 17.6382 24.8014 17.3773 24.6343 17.0786C24.5007 16.8398 24.4113 16.4937 24.5483 16.0149C24.7604 15.2736 24.8299 14.2868 24.3798 13.5812C24.081 13.1125 23.5543 12.8108 22.7449 12.7409C21.6534 12.6466 21.1234 13.5603 20.9642 14.4464C20.8668 14.9892 20.8624 15.5347 21.0346 15.8012C21.2845 16.1877 21.3148 16.5556 21.248 16.8734C21.1735 17.2282 20.9234 17.6015 20.4561 17.8208C19.8816 18.0907 18.8631 18.1725 17.9509 17.9389C17.288 17.7691 16.6882 17.4306 16.3078 16.9519C16.2024 16.8193 16.135 16.65 16.1161 16.4696C16.1161 16.4696 15.6434 11.9828 15.6433 11.9822C15.6357 11.9571 15.6276 11.9322 15.6194 11.9083C15.605 11.9199 15.5916 11.9308 15.5808 11.9405C14.6091 12.811 13.3819 12.416 12.734 11.5795C12.5693 11.3667 12.2719 10.6415 12.236 9.81321C12.1996 8.9736 12.4108 8.06671 13.0964 7.50772C13.83 6.90977 14.4366 7.02818 14.9874 7.28809C15.1538 7.36658 15.3126 7.46221 15.4677 7.53893C15.5174 7.56355 15.5634 7.59619 15.6111 7.60549ZM20.8152 3.55647C20.1498 3.30003 17.1633 3.99246 16.4499 4.78874C15.7835 5.53261 16.4842 7.07388 16.2663 8.07639C15.3887 9.23135 14.7017 7.22341 13.4991 8.20385C12.5663 8.96437 13.0181 10.722 13.2453 11.0153C13.6796 11.5762 14.5018 11.8494 15.1533 11.2657C15.5194 10.9378 16.0283 10.6085 16.3315 11.8124L16.8126 16.3796C17.8588 17.6957 21.1672 17.3674 20.4819 16.3067C19.8277 15.2943 20.2429 11.6842 22.7831 11.9038C25.4732 12.1363 25.6814 14.6624 25.213 16.2993C24.8692 17.5008 27.6461 16.0009 28.6918 14.9989C29.7974 12.808 29.1983 8.70207 28.7435 6.61787C28.189 3.92067 25.1556 3.80079 24.3988 3.41476C23.6591 3.03767 24.3602 5.66027 24.429 6.28057C24.5739 7.58522 24.0121 8.28388 22.467 8.22266C20.735 8.1542 20.3966 6.8055 20.5467 6.07372C20.6553 5.54425 21.4805 3.81291 20.8152 3.55647Z" fill="#121212"/>
<path fill-rule="evenodd" clip-rule="evenodd" d="M16.0262 20.3331C16.2017 20.4404 16.402 20.5405 16.6272 20.6298C16.859 20.2613 17.2375 20.0211 17.6645 20.0211C18.3691 20.0211 18.9412 20.6749 18.9412 21.4804C18.9412 22.2859 18.3691 22.9397 17.6645 22.9397C17.3138 22.9397 16.2917 22.8626 16.0752 23.1348C16.1256 24.6549 16.212 26.1453 16.3217 27.6163L14.8477 28.3745C13.1576 29.1997 13.1876 27.3332 13.7007 26.375C14.5586 24.7725 13.5819 23.3811 12.0242 23.428C9.65047 24.265 10.9842 26.2733 10.8768 27.3032C10.6591 29.3907 1.20124 28.4166 2.55137 23.2216C2.82519 22.1282 3.51951 22.0251 4.21028 22.3164C5.81052 23.9977 6.76143 23.4243 7.01024 20.4131C6.87624 17.9158 6.11484 18.1194 3.78766 18.6146C0.810585 19.2482 3.04956 11.1 7.94366 13.482C6.83473 15.2034 6.42992 17.7456 8.85193 18.4149C10.6586 18.707 11.7345 17.8465 11.3477 14.6792C13.2705 15.7831 14.8233 16.2798 16.1192 16.3551C16.0531 17.7102 16.0245 19.0342 16.0262 20.3331Z" fill="#0EA5E9"/>
<path fill-rule="evenodd" clip-rule="evenodd" d="M16.728 19.4473C17.0061 19.2719 17.3249 19.1713 17.6645 19.1713C18.7663 19.1713 19.6394 20.221 19.6394 21.4804C19.6394 22.7398 18.7663 23.7894 17.6645 23.7894C17.4863 23.7894 17.1274 23.7675 16.7982 23.7867C16.8494 25.0556 16.925 26.3044 17.0171 27.5395C17.0446 27.9075 16.8734 28.255 16.5936 28.3989L15.1195 29.1571C15.1157 29.1592 15.1117 29.1611 15.1077 29.163C14.0034 29.7023 13.3628 29.3366 13.0283 28.8451C12.809 28.5229 12.6918 28.0812 12.6939 27.5906C12.6963 27.0232 12.8616 26.3857 13.1157 25.9111C13.3067 25.5542 13.3732 25.2247 13.2821 24.9492C13.1346 24.5033 12.6814 24.2824 12.1294 24.2767C11.7401 24.4243 11.4977 24.5901 11.3762 24.8196C11.1904 25.1707 11.3226 25.5858 11.4006 25.9631C11.5128 26.5067 11.6105 27.0169 11.5695 27.4102C11.5181 27.9026 11.2582 28.3617 10.7519 28.6769C10.0714 29.1005 8.78784 29.2832 7.3924 29.1097C5.95665 28.9312 4.40553 28.3928 3.31941 27.4905C2.05747 26.4421 1.37464 24.9374 1.88407 22.9714C2.05618 22.2861 2.35475 21.8672 2.69508 21.6184C3.18663 21.2591 3.81283 21.2496 4.43886 21.5134C4.52245 21.5487 4.59972 21.6029 4.66664 21.6732C4.93058 21.9505 5.17049 22.1581 5.39122 22.2854C5.54771 22.3757 5.67442 22.45 5.78406 22.3776C5.90139 22.3001 5.97041 22.1257 6.04509 21.9001C6.17018 21.5218 6.25506 21.0212 6.30952 20.3983C6.29123 20.0926 6.26275 19.8365 6.21776 19.624C6.18038 19.4473 6.14947 19.312 6.06759 19.2367C5.94176 19.1212 5.7606 19.1445 5.52497 19.161C5.10406 19.1905 4.57334 19.3101 3.90798 19.4516C3.19699 19.603 2.68246 19.3855 2.33137 19.0114C1.97769 18.6344 1.76837 18.0603 1.74959 17.3631C1.68503 14.9623 4.14773 10.7195 8.20291 12.6932C8.40706 12.7925 8.5608 13.003 8.61792 13.2614C8.67505 13.5197 8.62877 13.7957 8.49315 14.0062C7.9804 14.8022 7.5942 15.8011 7.82553 16.6041C7.95952 17.0693 8.33537 17.3939 8.97694 17.5779C9.59739 17.6749 10.1064 17.6577 10.415 17.2606C10.7594 16.8174 10.8063 16.0258 10.657 14.8041C10.6192 14.4941 10.7246 14.1839 10.9314 13.9971C11.1382 13.8102 11.4127 13.777 11.6457 13.9107C13.4629 14.954 14.9277 15.4353 16.1525 15.5064C16.3389 15.5172 16.5139 15.6183 16.6386 15.7873C16.7633 15.9562 16.8273 16.1788 16.8162 16.4054C16.7659 17.4367 16.7376 18.4498 16.728 19.4473ZM16.0262 20.3331C16.0245 19.0342 16.0531 17.7102 16.1192 16.3551C14.8233 16.2798 13.2705 15.7831 11.3477 14.6792C11.7345 17.8465 10.6586 18.707 8.85193 18.4149C6.42992 17.7456 6.83473 15.2034 7.94366 13.482C3.04956 11.1 0.810585 19.2482 3.78766 18.6146C6.11484 18.1194 6.87624 17.9158 7.01024 20.4131C6.76143 23.4243 5.81052 23.9977 4.21028 22.3164C3.51951 22.0251 2.82519 22.1282 2.55137 23.2216C1.20124 28.4166 10.6591 29.3907 10.8768 27.3032C10.9842 26.2733 9.65047 24.265 12.0242 23.428C13.5819 23.3811 14.5586 24.7725 13.7007 26.375C13.1876 27.3332 13.1576 29.1997 14.8477 28.3745L16.3217 27.6163C16.212 26.1453 16.1256 24.6549 16.0752 23.1348C16.2917 22.8626 17.3138 22.9397 17.6645 22.9397C18.3691 22.9397 18.9412 22.2859 18.9412 21.4804C18.9412 20.6749 18.3691 20.0211 17.6645 20.0211C17.2375 20.0211 16.859 20.2613 16.6272 20.6298C16.402 20.5405 16.2017 20.4404 16.0262 20.3331Z" fill="#121212"/>
<path fill-rule="evenodd" clip-rule="evenodd" d="M16.6594 16.6586C16.4688 18.379 16.5832 18.3358 16.6539 19.8094C16.5131 19.8172 19.5057 19.0118 19.6578 21.7657C19.757 23.5616 18.0547 24.4517 16.8311 23.4188C16.5635 23.193 16.841 25.7436 16.906 27.0242C16.9149 28.2566 19.8995 27.8828 19.6767 26.2086C19.3302 23.6047 20.6562 22.4103 22.3161 23.0863C23.7237 23.6597 23.9269 25.7153 23.086 26.7282C22.0586 27.9658 23.7621 28.6313 25.6432 28.2113C27.4094 27.8172 29.3323 26.466 29.2982 23.7332C29.2851 22.6827 28.8187 22.8803 28.3846 22.8781C26.1975 23.938 25.763 22.6222 25.9269 20.6539C26.4165 18.9231 27.0166 19.2149 28.3767 19.9677C28.7748 20.0274 29.1516 19.8951 29.4871 19.3913C29.6999 18.0807 29.7341 16.859 29.3221 15.5093C27.7296 17.5779 24.2098 18.0984 24.5892 16.0347C25.4098 14.4186 24.6938 12.026 22.8088 12.2738C19.7072 12.6816 21.1168 15.5115 21.2595 15.8958C21.8024 17.358 19.4042 18.3895 16.6594 16.6586Z" fill="#6366F1"/>
<path fill-rule="evenodd" clip-rule="evenodd" d="M16.8842 20.61C16.8263 20.6326 16.7648 20.6464 16.7006 20.6499C16.3428 20.6699 16.1838 20.434 16.1385 20.3757C15.9908 20.186 15.9354 19.9717 15.9465 19.744C15.8721 18.2946 15.7657 18.3004 15.9618 16.5323C15.9917 16.2623 16.1295 16.029 16.3316 15.9066C16.5338 15.7841 16.7749 15.7876 16.9786 15.9161C18.3749 16.7966 19.6583 16.9038 20.3679 16.525C20.5186 16.4446 20.6757 16.3826 20.617 16.2246C20.5478 16.038 20.2317 15.3478 20.1406 14.5805C20.0629 13.9264 20.1395 13.2317 20.5183 12.6427C20.8711 12.0936 21.522 11.5948 22.7185 11.4375C23.7614 11.3004 24.5373 11.775 25.0303 12.5042C25.7138 13.5152 25.8361 15.0924 25.2545 16.3544C25.2561 16.3583 25.2584 16.3618 25.2615 16.3653C25.3507 16.4662 25.5013 16.4826 25.6717 16.4979C26.5926 16.5806 27.9884 15.987 28.7998 14.9331C28.965 14.7185 29.214 14.6249 29.456 14.6866C29.6979 14.7482 29.8978 14.9562 29.9828 15.2346C30.4427 16.7411 30.4157 18.1044 30.1782 19.567C30.157 19.6975 30.11 19.8195 30.0412 19.9229C29.518 20.7088 28.9233 20.8957 28.3025 20.8026C28.2294 20.7916 28.1582 20.7671 28.0911 20.73C27.7222 20.5258 27.4163 20.3552 27.1553 20.2642C27.0558 20.2296 26.9761 20.1802 26.9055 20.2178C26.8536 20.2453 26.826 20.3172 26.7848 20.4027C26.7264 20.5237 26.6729 20.6718 26.6198 20.8491C26.5923 21.2232 26.5891 21.5668 26.6291 21.8624C26.6543 22.0488 26.6852 22.212 26.773 22.3195C26.8618 22.4282 27.0034 22.427 27.1916 22.405C27.4451 22.3756 27.7474 22.2726 28.1092 22.0972C28.193 22.0567 28.2829 22.036 28.374 22.0365C28.5525 22.0375 28.7359 22.0138 28.8981 22.0328C29.1362 22.0606 29.348 22.1534 29.5278 22.3246C29.7566 22.5425 29.9919 22.9304 30.002 23.7369C30.042 26.9321 27.8506 28.5773 25.7855 29.0383C24.4108 29.3451 23.1217 29.0753 22.5746 28.5653C22.2972 28.3069 22.14 27.9878 22.0895 27.642C22.0281 27.2219 22.1191 26.6864 22.5815 26.1294C23.1007 25.504 22.9701 24.2362 22.1008 23.8823C21.5518 23.6586 21.0516 23.6876 20.7237 24.0444C20.3632 24.4368 20.246 25.145 20.372 26.0919C20.466 26.7982 20.2501 27.3797 19.8449 27.8154C19.3849 28.3096 18.6352 28.5911 17.9648 28.5929C16.9539 28.5955 16.2222 27.9252 16.2026 27.0408C16.1537 26.0957 15.9984 24.4951 16.0145 23.755C16.0233 23.3403 16.116 23.0626 16.1841 22.9442C16.3191 22.7095 16.4948 22.6081 16.6695 22.5743C16.8332 22.5427 17.0262 22.5625 17.23 22.7344C17.9656 23.3554 19.0152 22.8845 18.9555 21.8047C18.9142 21.0578 18.5242 20.7474 18.1177 20.6292C17.6343 20.4885 17.0077 20.5881 16.8842 20.61ZM16.6539 19.8057C16.7818 19.7507 19.5128 19.1381 19.658 21.7655C19.7571 23.5614 18.0549 24.4515 16.8313 23.4186C16.5638 23.1928 16.8412 25.7433 16.9062 27.024C16.9151 28.2563 19.8996 27.8825 19.6768 26.2083C19.3303 23.6045 20.6563 22.4102 22.3161 23.0862C23.7237 23.6595 23.9269 25.7151 23.086 26.7279C22.0587 27.9655 23.7621 28.631 25.6432 28.211C27.4094 27.8169 29.3322 26.4657 29.2981 23.733C29.285 22.6826 28.8186 22.8802 28.3845 22.8779C26.1975 23.9379 25.763 22.6221 25.9269 20.6539C26.4165 18.9231 27.0166 19.2149 28.3767 19.9677C28.7748 20.0274 29.1515 19.8951 29.487 19.3913C29.6998 18.0807 29.7339 16.859 29.322 15.5094C27.7295 17.5779 24.2098 18.0983 24.5892 16.0347C25.4098 14.4187 24.6939 12.0262 22.8089 12.2739C19.7073 12.6817 21.1169 15.5116 21.2596 15.8959C21.8024 17.358 19.4043 18.3895 16.6597 16.6586C16.4692 18.3776 16.5832 18.3358 16.6539 19.8057ZM16.6539 19.8057C16.6477 19.8084 16.6477 19.8096 16.6542 19.8093C16.6541 19.8081 16.654 19.8069 16.6539 19.8057Z" fill="#121212"/>
</svg>
