<svg width="280" height="260" viewBox="0 0 280 260" fill="none" xmlns="http://www.w3.org/2000/svg">
<path d="M0 42C0 18.804 18.804 0 42 0H238C261.196 0 280 18.804 280 42V218C280 241.196 261.196 260 238 260H42C18.804 260 0 241.196 0 218V42Z" fill="#121212"/>
<path fill-rule="evenodd" clip-rule="evenodd" d="M74.1821 68.3715C74.172 68.3727 74.1618 68.375 74.1517 68.3761L77.8918 64.9807C76.6031 65.2424 75.2769 65.3777 73.9232 65.3777C61.3825 65.3777 51.2009 53.6803 51.2009 39.2726C51.2009 24.8648 61.3825 13.1674 73.9232 13.1674C86.4638 13.1674 96.6454 24.8648 96.6454 39.2726C96.6454 44.567 95.2704 49.4943 92.9103 53.6103L96.619 55.2134C97.3522 54.6924 97.7625 54.3906 97.7625 54.3906C103.597 45.7363 106.146 36.4624 103.856 26.2774C103.856 26.2774 136.152 29.4915 141.43 35.4572C146.708 41.4241 140.663 66.9969 135.525 62.073C131.189 57.9203 126.543 55.6448 122.643 57.6036C117.957 59.9571 109.17 68.7158 108.832 76.6517C108.493 84.5889 112.874 97.9249 122.643 99.7161C126.065 99.8251 132.168 95.9696 134.931 95.3557C137.002 94.8955 139.001 99.1573 139.217 100.626C142.774 124.776 142.144 131.753 141.024 130.698C125.561 129.198 114.104 119.501 102.84 114.633C97.6853 115.879 95.1983 119.316 94.1066 122.092C99.2177 145.473 84.8908 149.965 78.5692 148.369C67.7376 145.635 57.7774 128.185 75.3195 114.289C80.3941 100.827 68.417 105.377 54.6029 102.011C44.8072 100.911 35.0328 107.032 27.9455 112.051C27.3149 107.58 27.1463 102.79 27.3707 97.9237C28.0714 82.6634 32.6271 66.6423 38.8624 57.2593C50.5693 65.7943 57.0737 70.8191 66.8907 70.3406C68.9319 70.2419 71.4595 69.4938 74.1821 68.3715Z" fill="#22D3EE"/>
<path fill-rule="evenodd" clip-rule="evenodd" d="M49.5091 56.8313C46.7113 51.748 45.0916 45.7283 45.0916 39.2726C45.0916 21.023 58.0384 6.26416 73.9232 6.26416C84.4704 6.26416 93.7228 12.7715 98.7496 22.4872C98.8867 22.2509 99.038 22.0225 99.2025 21.8045C100.485 20.1005 102.42 19.2043 104.392 19.4005C104.392 19.4005 120.716 21.0357 132.38 24.1224C138.662 25.7839 143.698 28.2556 145.751 30.577C147.676 32.7526 149.063 36.2845 149.449 40.6587C150.089 47.8787 148.098 57.7676 145.34 63.1046C143.011 67.6096 139.736 69.5178 137.092 69.5993C135.267 69.6555 133.376 69.0657 131.573 67.3388C130.3 66.119 129.004 65.092 127.707 64.4242C126.794 63.9537 125.93 63.5074 125.125 63.9124C122.947 65.006 119.688 67.9642 117.323 71.4192C116.103 73.2024 115.015 75.082 114.934 76.9845C114.81 79.8888 115.603 83.765 117.268 87.0938C118.576 89.7112 120.444 92.0922 123.162 92.8002C124.193 92.682 125.488 91.9671 126.788 91.3865C129.493 90.1782 132.127 88.9424 133.753 88.5821C136.065 88.068 138.457 88.7324 140.549 90.6257C143.059 92.8978 144.954 97.5256 145.244 99.4923C147.321 113.589 147.997 122.077 148.012 126.62C148.023 129.672 147.682 131.571 147.379 132.56C146.301 136.061 144.184 137.086 142.771 137.488C141.737 137.781 140.616 137.841 139.48 137.466C124.744 135.7 113.441 127.069 102.551 121.939C101.727 122.338 101.089 122.848 100.61 123.397C102.336 133.738 100.59 140.887 97.7595 145.714C92.4788 154.724 82.7572 156.5 77.2368 155.107C68.2403 152.835 59.8227 143.09 59.6571 131.614C59.5627 125.089 61.9746 117.688 69.1279 110.951C67.8727 110.756 66.3322 110.543 64.9917 110.43C64.0371 110.351 63.0419 110.267 62.0152 110.165C59.3951 109.906 56.5781 109.529 53.6859 108.849C45.3688 108.074 37.2101 113.638 31.1901 117.901C29.4525 119.131 27.2854 119.296 25.4179 118.337C23.5514 117.379 22.2342 115.426 21.9123 113.138C21.2167 108.209 21.0227 102.93 21.2685 97.5657C22.0362 80.8653 27.1534 63.3811 33.9767 53.1146C35.9021 50.2172 39.4808 49.4943 42.175 51.4588C44.9057 53.4497 47.3013 55.257 49.5091 56.8313ZM141.824 123.854C142.966 124.024 144.044 124.557 144.932 125.393C143.894 124.416 142.844 123.955 141.824 123.851C141.594 119.115 140.843 111.665 139.217 100.626C139.001 99.1573 137.002 94.8955 134.931 95.3557C132.168 95.9696 126.065 99.8251 122.643 99.7161C112.874 97.9249 108.493 84.5889 108.832 76.6517C109.17 68.7158 117.957 59.9571 122.643 57.6036C126.543 55.6448 131.189 57.9203 135.525 62.073C140.663 66.9969 146.708 41.4241 141.43 35.4572C136.152 29.4915 103.856 26.2774 103.856 26.2774C106.146 36.4624 103.597 45.7363 97.7625 54.3906C97.7625 54.3906 97.3522 54.6924 96.619 55.2134L92.9103 53.6103C95.2704 49.4943 96.6454 44.567 96.6454 39.2726C96.6454 24.8648 86.4638 13.1674 73.9232 13.1674C61.3825 13.1674 51.2009 24.8648 51.2009 39.2726C51.2009 53.6803 61.3825 65.3777 73.9232 65.3777C75.2769 65.3777 76.6031 65.2424 77.8918 64.9807L74.1517 68.3761L74.1821 68.3715C71.4595 69.4938 68.9319 70.2419 66.8907 70.3406C57.0737 70.8191 50.5693 65.7943 38.8624 57.2593C32.6271 66.6423 28.0714 82.6634 27.3707 97.9237C27.1463 102.79 27.3149 107.58 27.9455 112.051C35.0328 107.032 44.8072 100.911 54.6029 102.011C68.417 105.377 80.3941 100.827 75.3195 114.289C57.7774 128.185 67.7376 145.635 78.5692 148.369C84.8908 149.965 99.2177 145.473 94.1066 122.092C95.1983 119.316 97.6853 115.879 102.84 114.633C114.104 119.501 125.561 129.198 141.024 130.698C141.632 131.271 142.096 129.476 141.824 123.854Z" fill="#121212"/>
<path fill-rule="evenodd" clip-rule="evenodd" d="M182.133 28.9164C176.312 26.8336 150.185 32.4576 143.943 38.925C138.113 44.9667 144.243 57.485 142.337 65.6274C134.659 75.0081 128.649 58.6995 118.128 66.6626C109.967 72.8397 113.92 87.1153 115.907 89.497C119.707 94.0527 126.9 96.2722 132.6 91.5314C135.802 88.8676 140.255 86.1933 142.907 95.9716L147.116 133.066C156.269 143.755 185.213 141.089 179.217 132.474C173.494 124.252 177.127 94.9305 199.35 96.7134C222.884 98.6025 224.706 119.119 220.608 132.414C217.6 142.173 241.894 129.991 251.042 121.853C260.714 104.058 255.474 70.7092 251.495 53.7813C246.644 31.8745 220.106 30.9008 213.485 27.7655C207.013 24.7028 213.147 46.0036 213.749 51.0417C215.017 61.6381 210.102 67.3127 196.584 66.8155C181.432 66.2594 178.471 55.3052 179.784 49.3616C180.734 45.0613 187.954 30.9993 182.133 28.9164Z" fill="#8B5CF6"/>
<path fill-rule="evenodd" clip-rule="evenodd" d="M136.597 61.7946C136.607 60.6353 136.466 59.3988 136.321 58.1371C135.97 55.0561 135.439 51.868 135.27 48.8828C134.933 42.9296 136.043 37.6771 139.701 33.8857C143.302 30.1537 152.5 26.287 161.776 24.0322C171.161 21.7503 180.525 21.194 183.923 22.4091C188.504 24.049 190.72 28.0571 190.51 33.8157C190.31 39.3446 186.47 47.8324 185.752 51.0832C184.978 54.5884 187.748 59.6657 196.68 59.9945C199.878 60.1117 202.474 59.8669 204.503 59.1349C205.648 58.721 206.552 58.1977 207.096 57.3344C207.962 55.9566 207.934 54.0663 207.665 51.807C207.326 48.967 205.248 40.9924 204.621 35.068C204.187 30.9519 204.568 27.4813 205.411 25.5014C206.436 23.0969 208.051 21.6603 210.015 20.9929C211.523 20.4804 213.452 20.3621 215.814 21.4801C219.082 23.0273 227.272 24.0081 235.237 27.3398C245.127 31.4758 254.471 38.7913 257.453 52.1768C259.945 62.788 262.887 79.567 262.681 95.3052C262.532 106.642 260.692 117.435 256.328 125.465C255.964 126.135 255.497 126.728 254.947 127.217C247.808 133.569 232.312 141.945 224.856 142.779C220.094 143.311 217.012 141.191 215.55 138.763C214.381 136.824 213.599 134.011 214.797 130.121C216.653 124.098 217.261 116.081 213.323 110.347C210.709 106.539 206.1 104.088 199.018 103.52C189.467 102.753 184.829 110.177 183.437 117.377C182.585 121.787 182.546 126.219 184.053 128.385C186.239 131.525 186.504 134.514 185.92 137.096C185.269 139.979 183.08 143.012 178.991 144.794C173.964 146.987 165.052 147.652 157.07 145.753C151.27 144.374 146.022 141.623 142.693 137.734C141.771 136.657 141.181 135.282 141.016 133.816C141.016 133.816 136.879 97.3601 136.878 97.3555C136.812 97.1513 136.741 96.9491 136.67 96.7549C136.544 96.849 136.427 96.938 136.332 97.0169C127.83 104.09 117.092 100.88 111.423 94.0835C109.981 92.3547 107.38 86.4621 107.065 79.7324C106.747 72.9105 108.594 65.542 114.594 61.0002C121.013 56.1419 126.32 57.1039 131.14 59.2158C132.596 59.8534 133.985 60.6304 135.342 61.2538C135.777 61.4539 136.18 61.7191 136.597 61.7946ZM182.133 28.8963C176.311 26.8127 150.179 32.4387 143.936 38.9085C138.106 44.9524 144.237 57.4752 142.33 65.6206C134.651 75.0047 128.64 58.6902 118.117 66.6562C109.955 72.8355 113.908 87.1163 115.896 89.4989C119.696 94.0563 126.891 96.2766 132.591 91.5341C135.794 88.8693 140.248 86.1941 142.9 95.9759L147.11 133.084C156.264 143.777 185.213 141.11 179.216 132.492C173.492 124.266 177.126 94.9344 199.352 96.718C222.89 98.6078 224.713 119.132 220.614 132.431C217.605 142.194 241.904 130.008 251.053 121.866C260.727 104.065 255.485 70.7043 251.506 53.7702C246.654 31.8554 220.112 30.8814 213.49 27.745C207.017 24.6811 213.152 45.9897 213.754 51.0296C215.022 61.6299 210.106 67.3065 196.587 66.8091C181.431 66.2529 178.47 55.2947 179.784 49.349C180.733 45.0471 187.954 30.9799 182.133 28.8963Z" fill="#121212"/>
<path fill-rule="evenodd" clip-rule="evenodd" d="M140.229 165.206C141.765 166.078 143.517 166.892 145.488 167.617C147.517 164.623 150.828 162.671 154.565 162.671C160.73 162.671 165.736 167.984 165.736 174.528C165.736 181.073 160.73 186.385 154.565 186.385C151.496 186.385 142.552 185.758 140.658 187.97C141.099 200.321 141.855 212.43 142.815 224.382L129.917 230.543C115.129 237.248 115.392 222.082 119.881 214.297C127.387 201.277 118.841 189.971 105.212 190.353C84.4416 197.153 96.1116 213.47 95.1721 221.838C93.2668 238.8 10.5108 230.885 22.3245 188.676C24.7204 179.792 30.7957 178.954 36.8399 181.321C50.8421 194.981 59.1625 190.322 61.3396 165.857C60.1671 145.566 53.5048 147.22 33.1421 151.244C7.09262 156.392 26.6837 90.1879 69.5071 109.541C59.8039 123.528 56.2618 144.183 77.4544 149.621C93.2626 151.994 102.677 145.003 99.2926 119.269C116.117 128.237 129.704 132.273 141.043 132.885C140.464 143.895 140.214 154.653 140.229 165.206Z" fill="#0EA5E9"/>
<path fill-rule="evenodd" clip-rule="evenodd" d="M146.37 158.009C148.804 156.584 151.593 155.767 154.565 155.767C164.205 155.767 171.845 164.296 171.845 174.528C171.845 184.761 164.205 193.289 154.565 193.289C153.005 193.289 149.864 193.111 146.984 193.267C147.432 203.577 148.094 213.723 148.899 223.758C149.14 226.749 147.642 229.572 145.194 230.741L132.296 236.901C132.262 236.918 132.227 236.934 132.193 236.949C122.53 241.331 116.925 238.36 113.998 234.366C112.079 231.749 111.053 228.16 111.072 224.173C111.093 219.564 112.539 214.384 114.762 210.528C116.434 207.628 117.015 204.951 116.218 202.712C114.927 199.089 110.962 197.294 106.133 197.248C102.726 198.447 100.605 199.794 99.5418 201.659C97.9156 204.512 99.0731 207.885 99.7549 210.95C100.737 215.367 101.592 219.513 101.233 222.708C100.784 226.709 98.5096 230.439 94.0789 233C88.1246 236.441 76.8936 237.926 64.6835 236.517C52.1207 235.066 38.5483 230.692 29.0449 223.361C18.0029 214.842 12.0281 202.617 16.4857 186.642C17.9916 181.074 20.6041 177.671 23.5819 175.649C27.883 172.73 33.3622 172.653 38.84 174.797C39.5714 175.083 40.2475 175.524 40.8331 176.095C43.1426 178.348 45.2418 180.034 47.1732 181.069C48.5425 181.802 49.6512 182.406 50.6105 181.818C51.6371 181.189 52.2411 179.771 52.8945 177.938C53.9891 174.865 54.7318 170.797 55.2083 165.736C55.0483 163.253 54.7991 161.172 54.4054 159.445C54.0783 158.009 53.8079 156.91 53.0914 156.298C51.9904 155.36 50.4052 155.549 48.3435 155.683C44.6605 155.923 40.0167 156.894 34.1949 158.045C27.9737 159.274 23.4715 157.507 20.3995 154.468C17.3048 151.405 15.4732 146.74 15.309 141.075C14.744 121.569 36.2927 87.0958 71.7755 103.132C73.5618 103.939 74.907 105.649 75.4068 107.749C75.9067 109.848 75.5017 112.09 74.3151 113.801C69.8285 120.268 66.4492 128.384 68.4734 134.909C69.6458 138.688 72.9345 141.325 78.5482 142.821C83.9772 143.609 88.4312 143.469 91.1315 140.242C94.1448 136.641 94.5547 130.209 93.2491 120.283C92.9178 117.765 93.8403 115.244 95.65 113.726C97.4589 112.208 99.8612 111.938 101.899 113.025C117.8 121.501 130.617 125.412 141.334 125.989C142.966 126.077 144.497 126.899 145.588 128.272C146.679 129.644 147.239 131.453 147.142 133.294C146.702 141.673 146.454 149.905 146.37 158.009ZM140.229 165.206C140.214 154.653 140.464 143.895 141.043 132.885C129.704 132.273 116.117 128.237 99.2926 119.269C102.677 145.003 93.2626 151.994 77.4544 149.621C56.2618 144.183 59.8039 123.528 69.5071 109.541C26.6837 90.1879 7.09262 156.392 33.1421 151.244C53.5048 147.22 60.1671 145.566 61.3396 165.857C59.1625 190.322 50.8421 194.981 36.8399 181.321C30.7957 178.954 24.7204 179.792 22.3245 188.676C10.5108 230.885 93.2668 238.8 95.1721 221.838C96.1116 213.47 84.4416 197.153 105.212 190.353C118.841 189.971 127.387 201.277 119.881 214.297C115.392 222.082 115.129 237.248 129.917 230.543L142.815 224.382C141.855 212.43 141.099 200.321 140.658 187.97C142.552 185.758 151.496 186.385 154.565 186.385C160.73 186.385 165.736 181.073 165.736 174.528C165.736 167.984 160.73 162.671 154.565 162.671C150.828 162.671 147.517 164.623 145.488 167.617C143.517 166.892 141.765 166.078 140.229 165.206Z" fill="#121212"/>
<path fill-rule="evenodd" clip-rule="evenodd" d="M145.77 135.351C144.102 149.329 145.103 148.978 145.722 160.951C144.49 161.015 170.675 154.471 172.006 176.846C172.874 191.438 157.979 198.67 147.272 190.277C144.931 188.443 147.359 209.166 147.928 219.572C148.005 229.585 174.12 226.548 172.171 212.945C169.139 191.788 180.742 182.084 195.265 187.577C207.582 192.235 209.36 208.937 202.002 217.167C193.012 227.223 207.918 232.629 224.378 229.217C239.833 226.014 256.658 215.036 256.359 192.832C256.244 184.297 252.164 185.903 248.365 185.884C229.228 194.497 225.426 183.805 226.86 167.813C231.145 153.75 236.396 156.121 248.296 162.237C251.779 162.723 255.076 161.648 258.012 157.554C259.874 146.906 260.173 136.979 256.569 126.013C242.634 142.821 211.835 147.049 215.155 130.282C222.336 117.151 216.071 97.7112 199.577 99.7243C172.438 103.038 184.772 126.031 186.021 129.154C190.771 141.033 169.787 149.415 145.77 135.351Z" fill="#6366F1"/>
<path fill-rule="evenodd" clip-rule="evenodd" d="M147.737 167.457C147.23 167.64 146.692 167.752 146.131 167.78C142.999 167.943 141.609 166.026 141.212 165.553C139.92 164.011 139.435 162.27 139.532 160.42C138.881 148.644 137.95 148.691 139.665 134.325C139.927 132.131 141.133 130.236 142.901 129.241C144.67 128.246 146.78 128.274 148.563 129.318C160.781 136.473 172.01 137.343 178.219 134.265C179.538 133.612 180.912 133.109 180.399 131.825C179.793 130.309 177.027 124.7 176.23 118.467C175.55 113.152 176.221 107.507 179.535 102.722C182.622 98.2607 188.318 94.2081 198.787 92.9294C207.912 91.8159 214.702 95.6721 219.015 101.597C224.996 109.811 226.066 122.626 220.977 132.879C220.991 132.911 221.011 132.939 221.038 132.968C221.818 133.788 223.137 133.921 224.627 134.045C232.685 134.717 244.898 129.894 251.998 121.332C253.444 119.588 255.622 118.827 257.74 119.329C259.857 119.829 261.606 121.519 262.35 123.781C266.373 136.021 266.137 147.098 264.059 158.982C263.874 160.042 263.462 161.033 262.86 161.874C258.283 168.259 253.079 169.778 247.647 169.021C247.008 168.932 246.384 168.733 245.797 168.432C242.569 166.772 239.893 165.386 237.609 164.646C236.738 164.365 236.041 163.964 235.423 164.269C234.969 164.493 234.728 165.077 234.367 165.772C233.856 166.755 233.388 167.958 232.924 169.399C232.683 172.438 232.654 175.23 233.005 177.632C233.225 179.146 233.495 180.473 234.264 181.346C235.04 182.229 236.28 182.219 237.927 182.041C240.145 181.802 242.79 180.965 245.955 179.539C246.689 179.21 247.476 179.042 248.272 179.047C249.834 179.054 251.439 178.862 252.858 179.016C254.942 179.242 256.795 179.997 258.368 181.387C260.37 183.158 262.429 186.309 262.517 192.862C262.867 218.823 243.693 232.191 225.623 235.936C213.595 238.429 202.315 236.237 197.528 232.093C195.1 229.993 193.725 227.401 193.283 224.591C192.746 221.178 193.543 216.827 197.588 212.302C202.131 207.22 200.988 196.919 193.382 194.043C188.578 192.226 184.201 192.462 181.332 195.361C178.178 198.549 177.153 204.303 178.255 211.997C179.078 217.735 177.189 222.46 173.643 226C169.618 230.015 163.058 232.302 157.192 232.317C148.347 232.339 141.945 226.892 141.773 219.706C141.345 212.027 139.986 199.023 140.126 193.01C140.204 189.64 141.015 187.384 141.611 186.422C142.792 184.515 144.33 183.691 145.858 183.416C147.29 183.159 148.979 183.32 150.762 184.717C157.199 189.763 166.383 185.937 165.861 177.163C165.499 171.094 162.087 168.572 158.53 167.612C154.3 166.469 148.818 167.278 147.737 167.457ZM145.722 160.921C146.841 160.474 170.737 155.497 172.007 176.845C172.875 191.436 157.981 198.668 147.274 190.276C144.933 188.442 147.36 209.164 147.93 219.57C148.007 229.583 174.122 226.545 172.172 212.942C169.14 191.787 180.743 182.083 195.266 187.575C207.583 192.233 209.361 208.935 202.003 217.164C193.013 227.22 207.918 232.627 224.378 229.214C239.832 226.012 256.657 215.034 256.358 192.831C256.243 184.296 252.163 185.901 248.365 185.883C229.228 194.495 225.426 183.805 226.86 167.813C231.145 153.75 236.396 156.121 248.296 162.237C251.779 162.723 255.075 161.647 258.012 157.554C259.873 146.906 260.172 136.979 256.568 126.014C242.633 142.821 211.836 147.049 215.155 130.282C222.335 117.152 216.071 97.7126 199.578 99.7257C172.439 103.039 184.773 126.032 186.022 129.154C190.771 141.034 169.788 149.415 145.772 135.351C144.106 149.318 145.103 148.978 145.722 160.921ZM145.722 160.921C145.668 160.943 145.668 160.953 145.724 160.951C145.723 160.94 145.722 160.931 145.722 160.921Z" fill="#121212"/>
</svg>
