<svg width="342" height="342" viewBox="0 0 342 342" fill="none" xmlns="http://www.w3.org/2000/svg">
<path d="M342 171C342 265.441 265.441 342 171 342C76.5593 342 0 265.441 0 171C0 76.5593 76.5593 0 171 0C265.441 0 342 76.5593 342 171Z" fill="#121212"/>
<path fill-rule="evenodd" clip-rule="evenodd" d="M97.7595 109.372C97.748 109.373 97.7365 109.375 97.725 109.376L101.951 105.981C100.495 106.242 98.9964 106.378 97.4669 106.378C83.2966 106.378 71.792 94.6803 71.792 80.2726C71.792 65.8648 83.2966 54.1674 97.4669 54.1674C111.637 54.1674 123.142 65.8648 123.142 80.2726C123.142 85.567 121.588 90.4943 118.921 94.6104L123.112 96.2134C123.94 95.6924 124.404 95.3906 124.404 95.3906C130.996 86.7363 133.876 77.4624 131.289 67.2774C131.289 67.2774 167.782 70.4915 173.746 76.4572C179.709 82.4241 172.879 107.997 167.073 103.073C162.174 98.9203 156.925 96.6448 152.517 98.6036C147.223 100.957 137.294 109.716 136.911 117.652C136.529 125.589 141.48 138.925 152.517 140.716C156.384 140.825 163.281 136.97 166.402 136.356C168.743 135.896 171.001 140.157 171.245 141.626C175.265 165.776 174.552 172.753 173.287 171.698C155.815 170.198 142.869 160.501 130.141 155.633C124.317 156.879 121.507 160.316 120.273 163.092C126.048 186.473 109.86 190.965 102.717 189.369C90.4775 186.635 79.2231 169.185 99.0446 155.289C104.779 141.827 91.2452 146.377 75.636 143.011C64.5675 141.911 53.523 148.032 45.5147 153.051C44.8021 148.58 44.6116 143.79 44.8652 138.924C45.657 123.663 50.8046 107.642 57.8501 98.2593C71.0783 106.794 78.4279 111.819 89.5205 111.341C91.827 111.242 94.6831 110.494 97.7595 109.372Z" fill="#22D3EE"/>
<path fill-rule="evenodd" clip-rule="evenodd" d="M69.8803 97.8313C66.719 92.748 64.8888 86.7283 64.8888 80.2726C64.8888 62.023 79.518 47.2642 97.4669 47.2642C109.385 47.2642 119.839 53.7715 125.519 63.4872C125.674 63.2509 125.845 63.0225 126.031 62.8045C127.48 61.1005 129.666 60.2043 131.895 60.4005C131.895 60.4005 150.34 62.0357 163.519 65.1224C170.618 66.7839 176.308 69.2556 178.628 71.577C180.804 73.7526 182.37 77.2845 182.807 81.6587C183.53 88.8787 181.28 98.7676 178.163 104.105C175.532 108.61 171.832 110.518 168.844 110.599C166.782 110.656 164.645 110.066 162.608 108.339C161.169 107.119 159.705 106.092 158.24 105.424C157.208 104.954 156.232 104.507 155.322 104.912C152.861 106.006 149.178 108.964 146.507 112.419C145.127 114.202 143.899 116.082 143.807 117.985C143.667 120.889 144.563 124.765 146.444 128.094C147.922 130.711 150.033 133.092 153.104 133.8C154.269 133.682 155.732 132.967 157.201 132.387C160.258 131.178 163.234 129.942 165.071 129.582C167.683 129.068 170.387 129.732 172.751 131.626C175.586 133.898 177.727 138.526 178.056 140.492C180.402 154.589 181.166 163.077 181.184 167.62C181.195 170.672 180.811 172.571 180.468 173.56C179.25 177.061 176.858 178.086 175.261 178.488C174.092 178.781 172.826 178.841 171.542 178.466C154.891 176.7 142.12 168.069 129.814 162.939C128.884 163.338 128.163 163.848 127.621 164.397C129.572 174.738 127.599 181.887 124.401 186.714C118.434 195.724 107.449 197.5 101.211 196.107C91.0456 193.835 81.5341 184.09 81.3471 172.614C81.2403 166.089 83.9656 158.688 92.0485 151.951C90.6302 151.756 88.8894 151.543 87.3748 151.43C86.2961 151.351 85.1716 151.267 84.0115 151.165C81.051 150.906 77.8679 150.529 74.5999 149.849C65.202 149.074 55.9832 154.638 49.1809 158.901C47.2176 160.131 44.7688 160.296 42.6586 159.337C40.5496 158.379 39.0613 156.426 38.6975 154.138C37.9115 149.209 37.6923 143.93 37.97 138.566C38.8375 121.865 44.6197 104.381 52.3296 94.1146C54.5052 91.2172 58.5489 90.4943 61.5932 92.4588C64.6788 94.4497 67.3857 96.257 69.8803 97.8313ZM174.191 164.854C175.482 165.024 176.699 165.557 177.703 166.393C176.529 165.416 175.344 164.955 174.191 164.851C173.931 160.115 173.082 152.665 171.245 141.626C171.001 140.157 168.743 135.896 166.402 136.356C163.281 136.97 156.384 140.825 152.517 140.716C141.48 138.925 136.529 125.589 136.911 117.652C137.294 109.716 147.223 100.957 152.517 98.6036C156.925 96.6448 162.174 98.9203 167.073 103.073C172.879 107.997 179.709 82.4241 173.746 76.4572C167.782 70.4915 131.289 67.2774 131.289 67.2774C133.876 77.4624 130.996 86.7363 124.404 95.3906C124.404 95.3906 123.94 95.6924 123.112 96.2134L118.921 94.6104C121.588 90.4943 123.142 85.567 123.142 80.2726C123.142 65.8648 111.637 54.1674 97.4669 54.1674C83.2966 54.1674 71.792 65.8648 71.792 80.2726C71.792 94.6803 83.2966 106.378 97.4669 106.378C98.9964 106.378 100.495 106.242 101.951 105.981L97.725 109.376L97.7595 109.372C94.6831 110.494 91.827 111.242 89.5205 111.341C78.4279 111.819 71.0783 106.794 57.8501 98.2593C50.8046 107.642 45.657 123.663 44.8652 138.924C44.6116 143.79 44.8021 148.58 45.5147 153.051C53.523 148.032 64.5675 141.911 75.636 143.011C91.2452 146.377 104.779 141.827 99.0446 155.289C79.2231 169.185 90.4775 186.635 102.717 189.369C109.86 190.965 126.048 186.473 120.273 163.092C121.507 160.316 124.317 156.879 130.141 155.633C142.869 160.501 155.815 170.198 173.287 171.698C173.974 172.271 174.498 170.476 174.191 164.854Z" fill="#121212"/>
<path fill-rule="evenodd" clip-rule="evenodd" d="M221.323 68.244C214.796 66.1998 185.382 72.19 178.314 78.811C171.712 84.9962 178.502 97.6068 176.294 105.876C167.588 115.464 160.964 99.0123 149.073 107.196C139.85 113.545 144.179 127.96 146.394 130.35C150.628 134.922 158.696 137.089 165.141 132.223C168.762 129.489 173.789 126.73 176.692 136.605L181.125 174.13C191.328 184.854 223.885 181.828 217.214 173.17C210.846 164.905 215.165 135.165 240.131 136.721C266.57 138.37 268.454 159.131 263.741 172.643C260.281 182.561 287.688 169.949 298.036 161.603C309.051 143.47 303.428 109.751 299.091 92.6494C293.814 70.5148 263.991 69.827 256.574 66.7257C249.324 63.6963 256.048 85.2027 256.684 90.2989C258.024 101.018 252.453 106.821 237.263 106.469C220.235 106.076 216.995 95.0141 218.519 88.9792C219.621 84.6127 227.849 70.2882 221.323 68.244Z" fill="#8B5CF6"/>
<path fill-rule="evenodd" clip-rule="evenodd" d="M169.881 102.066C169.902 100.892 169.753 99.6418 169.601 98.3659C169.231 95.2503 168.66 92.0283 168.494 89.0076C168.162 82.9836 169.453 77.6529 173.594 73.7729C177.671 69.9537 188.039 65.9352 198.483 63.5479C209.049 61.1318 219.578 60.4633 223.386 61.6554C228.522 63.2644 230.98 67.2977 230.699 73.1307C230.429 78.7311 226.045 87.3685 225.212 90.668C224.314 94.2258 227.387 99.3355 237.422 99.568C241.016 99.6507 243.936 99.3737 246.221 98.6097C247.513 98.1777 248.532 97.6377 249.15 96.7575C250.135 95.3527 250.119 93.439 249.834 91.1545C249.476 88.2827 247.204 80.2317 246.548 74.2401C246.093 70.0774 246.548 66.5591 247.513 64.5449C248.684 62.0987 250.51 60.626 252.723 59.9282C254.422 59.3923 256.591 59.2508 259.237 60.3563C262.897 61.8861 272.094 62.7871 281.019 66.0709C292.101 70.1476 302.544 77.4496 305.788 90.9692C308.504 101.685 311.676 118.641 311.317 134.579C311.059 146.059 308.905 157.008 303.936 165.187C303.521 165.87 302.991 166.476 302.369 166.977C294.295 173.489 276.812 182.144 268.425 183.072C263.069 183.664 259.623 181.552 257.999 179.111C256.701 177.16 255.844 174.321 257.222 170.369C259.356 164.25 260.104 156.125 255.724 150.364C252.816 146.537 247.657 144.107 239.702 143.612C228.973 142.943 223.701 150.512 222.079 157.818C221.085 162.293 221.006 166.781 222.683 168.957C225.114 172.112 225.389 175.135 224.711 177.756C223.956 180.682 221.471 183.778 216.862 185.628C211.194 187.905 201.174 188.678 192.218 186.846C185.71 185.514 179.834 182.788 176.124 178.888C175.096 177.807 174.444 176.422 174.27 174.939C174.27 174.939 169.914 138.074 169.913 138.069C169.84 137.863 169.762 137.659 169.683 137.463C169.54 137.56 169.408 137.651 169.301 137.732C159.689 144.989 147.646 141.86 141.329 135.042C139.723 133.308 136.846 127.371 136.547 120.561C136.244 113.657 138.38 106.175 145.159 101.509C152.412 96.5178 158.369 97.4323 163.769 99.5164C165.4 100.146 166.955 100.917 168.475 101.533C168.963 101.73 169.413 101.994 169.881 102.066ZM221.323 68.244C214.796 66.1998 185.382 72.19 178.314 78.811C171.712 84.9962 178.502 97.6068 176.294 105.876C167.588 115.464 160.964 99.0123 149.073 107.196C139.85 113.545 144.179 127.96 146.394 130.35C150.628 134.922 158.696 137.089 165.141 132.223C168.762 129.489 173.789 126.73 176.692 136.605L181.125 174.13C191.328 184.854 223.885 181.828 217.214 173.17C210.846 164.905 215.165 135.165 240.131 136.721C266.57 138.37 268.454 159.131 263.741 172.643C260.281 182.561 287.688 169.949 298.036 161.603C309.051 143.47 303.428 109.751 299.091 92.6494C293.814 70.5148 263.991 69.827 256.574 66.7257C249.324 63.6963 256.048 85.2027 256.684 90.2989C258.024 101.018 252.453 106.821 237.263 106.469C220.235 106.076 216.995 95.0141 218.519 88.9792C219.621 84.6127 227.849 70.2882 221.323 68.244Z" fill="#121212"/>
<path fill-rule="evenodd" clip-rule="evenodd" d="M173.596 206.897C175.331 207.769 177.312 208.582 179.539 209.308C181.831 206.314 185.572 204.361 189.795 204.361C196.761 204.361 202.417 209.674 202.417 216.218C202.417 222.763 196.761 228.076 189.795 228.076C186.327 228.076 176.221 227.449 174.081 229.661C174.579 242.012 175.433 254.121 176.518 266.073L161.944 272.234C145.235 278.938 145.531 263.773 150.604 255.987C159.086 242.967 149.429 231.661 134.028 232.043C110.56 238.844 123.746 255.161 122.684 263.529C120.532 280.49 27.0219 272.575 40.3707 230.366C43.0779 221.482 49.9427 220.645 56.7723 223.011C72.5939 236.672 81.9955 232.013 84.4555 207.547C83.1307 187.257 75.6027 188.91 52.5939 192.934C23.1595 198.082 45.2963 131.878 93.6843 151.232C82.7203 165.218 78.7179 185.873 102.664 191.312C120.527 193.685 131.164 186.693 127.34 160.959C146.351 169.928 161.703 173.964 174.516 174.576C173.862 185.585 173.579 196.343 173.596 206.897Z" fill="#0EA5E9"/>
<path fill-rule="evenodd" clip-rule="evenodd" d="M180.536 199.7C183.285 198.274 186.437 197.458 189.795 197.458C200.688 197.458 209.32 205.986 209.32 216.218C209.32 226.451 200.688 234.979 189.795 234.979C188.032 234.979 184.483 234.802 181.229 234.958C181.735 245.267 182.483 255.413 183.393 265.449C183.665 268.439 181.972 271.262 179.206 272.431L164.632 278.592C164.594 278.609 164.555 278.625 164.516 278.64C153.597 283.021 147.264 280.05 143.956 276.057C141.788 273.439 140.629 269.85 140.65 265.864C140.674 261.254 142.308 256.074 144.82 252.218C146.709 249.318 147.366 246.642 146.465 244.402C145.007 240.78 140.526 238.985 135.069 238.938C131.22 240.137 128.824 241.485 127.622 243.35C125.784 246.202 127.092 249.575 127.863 252.641C128.972 257.058 129.939 261.203 129.533 264.398C129.025 268.399 126.456 272.13 121.449 274.69C114.721 278.132 102.031 279.617 88.2339 278.207C74.0387 276.757 58.7027 272.382 47.9643 265.051C35.4875 256.533 28.7363 244.307 33.7731 228.333C35.4747 222.765 38.4267 219.362 41.7915 217.34C46.6515 214.421 52.8427 214.343 59.0323 216.487C59.8587 216.774 60.6227 217.214 61.2843 217.786C63.8939 220.038 66.2659 221.725 68.4483 222.759C69.9955 223.493 71.2483 224.097 72.3323 223.509C73.4923 222.879 74.1747 221.462 74.9131 219.629C76.1499 216.555 76.9891 212.488 77.5275 207.426C77.3467 204.943 77.0651 202.862 76.6203 201.135C76.2507 199.7 75.9451 198.601 75.1355 197.989C73.8915 197.05 72.1003 197.239 69.7707 197.374C65.6091 197.614 60.3619 198.585 53.7835 199.735C46.7539 200.965 41.6667 199.197 38.1955 196.158C34.6987 193.095 32.6291 188.43 32.4435 182.766C31.8051 163.259 56.1539 128.786 96.2475 144.822C98.2659 145.629 99.7859 147.34 100.351 149.439C100.916 151.538 100.458 153.781 99.1171 155.491C94.0475 161.958 90.2291 170.074 92.5163 176.599C93.8411 180.378 97.5571 183.016 103.9 184.511C110.035 185.299 115.068 185.159 118.119 181.933C121.524 178.332 121.987 171.9 120.512 161.974C120.137 159.455 121.18 156.934 123.224 155.417C125.268 153.898 127.983 153.629 130.286 154.715C148.253 163.192 162.736 167.102 174.845 167.68C176.688 167.768 178.419 168.59 179.652 169.962C180.884 171.334 181.517 173.143 181.408 174.985C180.91 183.364 180.63 191.595 180.536 199.7ZM173.596 206.897C173.579 196.343 173.862 185.585 174.516 174.576C161.703 173.964 146.351 169.928 127.34 160.959C131.164 186.693 120.527 193.685 102.664 191.312C78.7179 185.873 82.7203 165.218 93.6843 151.232C45.2963 131.878 23.1595 198.082 52.5939 192.934C75.6027 188.91 83.1307 187.257 84.4555 207.547C81.9955 232.013 72.5939 236.672 56.7723 223.011C49.9427 220.645 43.0779 221.482 40.3707 230.366C27.0219 272.575 120.532 280.49 122.684 263.529C123.746 255.161 110.56 238.844 134.028 232.043C149.429 231.661 159.086 242.967 150.604 255.987C145.531 263.773 145.235 278.938 161.944 272.234L176.518 266.073C175.433 254.121 174.579 242.012 174.081 229.661C176.221 227.449 186.327 228.076 189.795 228.076C196.761 228.076 202.417 222.763 202.417 216.218C202.417 209.674 196.761 204.361 189.795 204.361C185.572 204.361 181.831 206.314 179.539 209.308C177.312 208.582 175.331 207.769 173.596 206.897Z" fill="#121212"/>
<path fill-rule="evenodd" clip-rule="evenodd" d="M178.281 176.743C176.289 190.88 177.414 190.513 178.004 202.597C176.622 202.676 206.029 195.748 207.326 218.328C208.171 233.053 191.414 240.538 179.486 232.194C176.878 230.369 179.418 251.268 179.965 261.769C179.965 271.881 209.263 268.494 207.196 254.781C203.982 233.452 217.072 223.511 233.303 228.881C247.068 233.435 248.915 250.28 240.596 258.681C230.433 268.945 247.093 274.224 265.571 270.577C282.922 267.154 301.876 255.862 301.735 233.443C301.68 224.825 297.093 226.496 292.836 226.524C271.31 235.455 267.142 224.704 268.889 208.536C273.813 194.282 279.678 196.613 292.964 202.644C296.864 203.092 300.569 201.966 303.895 197.797C306.074 187.02 306.496 176.992 302.552 165.961C286.786 183.105 252.229 187.751 256.096 170.778C264.259 157.43 257.406 137.874 238.901 140.108C208.453 143.786 222.078 166.855 223.45 169.994C228.67 181.933 205.077 190.653 178.281 176.743Z" fill="#6366F1"/>
<path fill-rule="evenodd" clip-rule="evenodd" d="M180.204 209.142C179.634 209.334 179.03 209.453 178.4 209.489C174.889 209.691 173.347 207.773 172.906 207.3C171.471 205.758 170.943 204.006 171.068 202.137C170.441 190.251 169.397 190.31 171.445 175.781C171.757 173.563 173.126 171.634 175.116 170.608C177.108 169.581 179.472 169.584 181.461 170.616C195.094 177.693 207.673 178.435 214.66 175.251C216.144 174.575 217.689 174.05 217.124 172.76C216.458 171.236 213.407 165.606 212.568 159.32C211.852 153.961 212.653 148.252 216.409 143.379C219.909 138.836 226.328 134.674 238.074 133.255C248.312 132.019 255.889 135.83 260.672 141.761C267.304 149.983 268.392 162.912 262.598 173.329C262.614 173.361 262.636 173.39 262.666 173.418C263.534 174.236 265.01 174.355 266.68 174.462C275.706 175.042 289.438 170.023 297.471 161.289C299.107 159.51 301.555 158.716 303.924 159.196C306.293 159.676 308.238 161.361 309.052 163.637C313.456 175.948 313.095 187.138 310.662 199.165C310.445 200.238 309.975 201.244 309.293 202.1C304.106 208.604 298.26 210.202 292.177 209.504C291.462 209.421 290.765 209.228 290.11 208.931C286.506 207.294 283.518 205.928 280.964 205.208C279.991 204.935 279.213 204.538 278.518 204.854C278.007 205.086 277.731 205.678 277.32 206.385C276.739 207.384 276.204 208.604 275.671 210.065C275.375 213.137 275.319 215.957 275.69 218.378C275.925 219.905 276.216 221.241 277.07 222.114C277.932 222.996 279.322 222.971 281.169 222.771C283.657 222.502 286.629 221.625 290.19 220.147C291.015 219.806 291.899 219.626 292.791 219.621C294.542 219.61 296.343 219.396 297.932 219.534C300.265 219.737 302.336 220.476 304.088 221.862C306.316 223.625 308.597 226.783 308.638 233.4C308.805 259.614 287.196 273.347 266.909 277.35C253.404 280.014 240.78 277.938 235.45 273.812C232.748 271.721 231.229 269.12 230.758 266.288C230.186 262.847 231.116 258.444 235.691 253.824C240.827 248.637 239.635 238.247 231.135 235.436C225.766 233.659 220.858 233.95 217.617 236.913C214.054 240.172 212.854 245.995 214.023 253.751C214.895 259.537 212.737 264.332 208.731 267.95C204.185 272.054 196.811 274.444 190.236 274.53C180.322 274.66 173.193 269.237 173.063 261.983C172.65 254.233 171.241 241.116 171.45 235.041C171.566 231.638 172.495 229.349 173.172 228.37C174.512 226.43 176.243 225.579 177.958 225.283C179.566 225.006 181.457 225.148 183.444 226.537C190.615 231.554 200.943 227.578 200.434 218.724C200.082 212.6 196.278 210.094 192.299 209.168C187.569 208.065 181.416 208.949 180.204 209.142ZM178.002 202.567C179.26 202.102 206.088 196.784 207.326 218.328C208.171 233.053 191.414 240.538 179.486 232.194C176.878 230.369 179.418 251.268 179.965 261.769C179.965 271.881 209.263 268.494 207.196 254.781C203.982 233.452 217.072 223.511 233.303 228.881C247.068 233.435 248.915 250.28 240.596 258.681C230.433 268.945 247.093 274.224 265.571 270.577C282.922 267.154 301.876 255.862 301.735 233.443C301.68 224.825 297.093 226.496 292.836 226.524C271.31 235.455 267.142 224.704 268.889 208.536C273.813 194.282 279.678 196.613 292.964 202.644C296.864 203.092 300.569 201.966 303.895 197.797C306.074 187.02 306.496 176.992 302.552 165.961C286.786 183.105 252.229 187.751 256.096 170.778C264.259 157.43 257.406 137.874 238.901 140.108C208.453 143.786 222.078 166.855 223.45 169.994C228.67 181.933 205.077 190.653 178.281 176.743C176.291 190.869 177.412 190.513 178.002 202.567ZM178.002 202.567C177.941 202.59 177.94 202.6 178.004 202.597C178.003 202.586 178.002 202.577 178.002 202.567Z" fill="#121212"/>
</svg>
