<svg width="260" height="250" viewBox="0 0 260 250" fill="none" xmlns="http://www.w3.org/2000/svg">
<path d="M0 42C0 18.804 18.804 0 42 0H218C241.196 0 260 18.804 260 42V208C260 231.196 241.196 250 218 250H42C18.804 250 0 231.196 0 208V42Z" fill="#121212"/>
<path fill-rule="evenodd" clip-rule="evenodd" d="M64.1821 63.3715C64.172 63.3727 64.1618 63.375 64.1517 63.3761L67.8918 59.9807C66.6031 60.2423 65.2769 60.3777 63.9232 60.3777C51.3825 60.3777 41.2009 48.6803 41.2009 34.2726C41.2009 19.8648 51.3825 8.1674 63.9232 8.1674C76.4638 8.1674 86.6454 19.8648 86.6454 34.2726C86.6454 39.567 85.2704 44.4943 82.9103 48.6103L86.619 50.2134C87.3522 49.6924 87.7625 49.3906 87.7625 49.3906C93.5967 40.7363 96.1456 31.4624 93.8556 21.2774C93.8556 21.2774 126.152 24.4915 131.43 30.4572C136.708 36.4241 130.663 61.9969 125.525 57.073C121.189 52.9203 116.543 50.6448 112.643 52.6036C107.957 54.9571 99.1698 63.7158 98.8317 71.6517C98.4935 79.5889 102.874 92.9249 112.643 94.7161C116.065 94.8251 122.168 90.9696 124.931 90.3557C127.002 89.8955 129.001 94.1573 129.217 95.626C132.774 119.776 132.144 126.753 131.024 125.698C115.561 124.198 104.104 114.501 92.8401 109.633C87.6853 110.879 85.1983 114.316 84.1066 117.092C89.2177 140.473 74.8908 144.965 68.5692 143.369C57.7376 140.635 47.7774 123.185 65.3195 109.289C70.3941 95.8268 58.417 100.377 44.6029 97.011C34.8072 95.9106 25.0328 102.032 17.9455 107.051C17.3149 102.58 17.1463 97.7902 17.3707 92.9237C18.0714 77.6634 22.6271 61.6423 28.8624 52.2593C40.5693 60.7943 47.0737 65.8191 56.8907 65.3406C58.9319 65.2419 61.4595 64.4938 64.1821 63.3715Z" fill="#22D3EE"/>
<path fill-rule="evenodd" clip-rule="evenodd" d="M39.5091 51.8313C36.7113 46.748 35.0916 40.7283 35.0916 34.2726C35.0916 16.023 48.0384 1.26416 63.9232 1.26416C74.4704 1.26416 83.7228 7.77153 88.7496 17.4872C88.8867 17.2509 89.038 17.0225 89.2025 16.8045C90.4851 15.1005 92.4197 14.2043 94.3918 14.4005C94.3918 14.4005 110.716 16.0357 122.38 19.1224C128.662 20.7839 133.698 23.2556 135.751 25.577C137.676 27.7526 139.063 31.2845 139.449 35.6587C140.089 42.8787 138.098 52.7676 135.34 58.1046C133.011 62.6096 129.736 64.5178 127.092 64.5993C125.267 64.6555 123.376 64.0657 121.573 62.3388C120.3 61.119 119.004 60.092 117.707 59.4242C116.794 58.9537 115.93 58.5074 115.125 58.9124C112.947 60.006 109.688 62.9642 107.323 66.4192C106.103 68.2024 105.015 70.082 104.934 71.9845C104.81 74.8888 105.603 78.765 107.268 82.0938C108.576 84.7112 110.444 87.0922 113.162 87.8002C114.193 87.682 115.488 86.9671 116.788 86.3865C119.493 85.1782 122.127 83.9424 123.753 83.5821C126.065 83.068 128.457 83.7324 130.549 85.6257C133.059 87.8978 134.954 92.5256 135.244 94.4923C137.321 108.589 137.997 117.077 138.012 121.62C138.023 124.672 137.682 126.571 137.379 127.56C136.301 131.061 134.184 132.086 132.771 132.488C131.737 132.781 130.616 132.841 129.48 132.466C114.744 130.7 103.441 122.069 92.5507 116.939C91.7271 117.338 91.0894 117.848 90.61 118.397C92.3364 128.738 90.5897 135.887 87.7595 140.714C82.4788 149.724 72.7572 151.5 67.2368 150.107C58.2403 147.835 49.8227 138.09 49.6571 126.614C49.5627 120.089 51.9746 112.688 59.1279 105.951C57.8727 105.756 56.3322 105.543 54.9917 105.43C54.0371 105.351 53.0419 105.267 52.0152 105.165C49.3951 104.906 46.5781 104.529 43.6859 103.849C35.3688 103.074 27.2101 108.638 21.1901 112.901C19.4525 114.131 17.2854 114.296 15.4179 113.337C13.5514 112.379 12.2342 110.426 11.9123 108.138C11.2167 103.209 11.0227 97.9302 11.2685 92.5657C12.0362 75.8653 17.1534 58.3811 23.9767 48.1146C25.9021 45.2172 29.4808 44.4943 32.175 46.4588C34.9057 48.4497 37.3013 50.257 39.5091 51.8313ZM131.824 118.854C132.966 119.024 134.044 119.557 134.932 120.393C133.894 119.416 132.844 118.955 131.824 118.851C131.594 114.115 130.843 106.665 129.217 95.626C129.001 94.1573 127.002 89.8955 124.931 90.3557C122.168 90.9696 116.065 94.8251 112.643 94.7161C102.874 92.9249 98.4935 79.5889 98.8317 71.6517C99.1698 63.7158 107.957 54.9571 112.643 52.6036C116.543 50.6448 121.189 52.9203 125.525 57.073C130.663 61.9969 136.708 36.4241 131.43 30.4572C126.152 24.4915 93.8556 21.2774 93.8556 21.2774C96.1456 31.4624 93.5967 40.7363 87.7625 49.3906C87.7625 49.3906 87.3522 49.6924 86.619 50.2134L82.9103 48.6103C85.2704 44.4943 86.6454 39.567 86.6454 34.2726C86.6454 19.8648 76.4638 8.1674 63.9232 8.1674C51.3825 8.1674 41.2009 19.8648 41.2009 34.2726C41.2009 48.6803 51.3825 60.3777 63.9232 60.3777C65.2769 60.3777 66.6031 60.2423 67.8918 59.9807L64.1517 63.3761L64.1821 63.3715C61.4595 64.4938 58.9319 65.2419 56.8907 65.3406C47.0737 65.8191 40.5693 60.7943 28.8624 52.2593C22.6271 61.6423 18.0714 77.6634 17.3707 92.9237C17.1463 97.7902 17.3149 102.58 17.9455 107.051C25.0328 102.032 34.8072 95.9106 44.6029 97.011C58.417 100.377 70.3941 95.8268 65.3195 109.289C47.7774 123.185 57.7376 140.635 68.5692 143.369C74.8908 144.965 89.2177 140.473 84.1066 117.092C85.1983 114.316 87.6853 110.879 92.8401 109.633C104.104 114.501 115.561 124.198 131.024 125.698C131.632 126.271 132.096 124.476 131.824 118.854Z" fill="#121212"/>
<path fill-rule="evenodd" clip-rule="evenodd" d="M172.133 23.9164C166.312 21.8336 140.185 27.4576 133.943 33.925C128.113 39.9667 134.243 52.485 132.337 60.6274C124.659 70.008 118.649 53.6995 108.128 61.6626C99.9674 67.8396 103.92 82.1153 105.907 84.497C109.707 89.0527 116.9 91.2722 122.6 86.5314C125.802 83.8676 130.255 81.1933 132.907 90.9716L137.116 128.066C146.269 138.755 175.213 136.089 169.217 127.474C163.494 119.252 167.127 89.9305 189.35 91.7134C212.884 93.6025 214.706 114.119 210.608 127.414C207.6 137.173 231.894 124.991 241.042 116.853C250.714 99.0576 245.474 65.7092 241.495 48.7813C236.644 26.8745 210.106 25.9008 203.485 22.7655C197.013 19.7028 203.147 41.0036 203.749 46.0417C205.017 56.6381 200.102 62.3127 186.584 61.8155C171.432 61.2594 168.471 50.3052 169.784 44.3616C170.734 40.0613 177.954 25.9993 172.133 23.9164Z" fill="#8B5CF6"/>
<path fill-rule="evenodd" clip-rule="evenodd" d="M126.597 56.7946C126.607 55.6353 126.466 54.3988 126.321 53.1371C125.97 50.0561 125.439 46.868 125.27 43.8828C124.933 37.9296 126.043 32.6771 129.701 28.8857C133.302 25.1537 142.5 21.287 151.776 19.0322C161.161 16.7503 170.525 16.194 173.923 17.4091C178.504 19.049 180.72 23.0571 180.51 28.8157C180.31 34.3446 176.47 42.8324 175.752 46.0832C174.978 49.5884 177.748 54.6657 186.68 54.9945C189.878 55.1117 192.474 54.8669 194.503 54.1349C195.648 53.721 196.552 53.1977 197.096 52.3344C197.962 50.9566 197.934 49.0663 197.665 46.807C197.326 43.967 195.248 35.9924 194.621 30.068C194.187 25.9519 194.568 22.4813 195.411 20.5014C196.436 18.0969 198.051 16.6603 200.015 15.9929C201.523 15.4804 203.452 15.3621 205.814 16.4801C209.082 18.0273 217.272 19.0081 225.237 22.3398C235.127 26.4758 244.471 33.7913 247.453 47.1768C249.945 57.788 252.887 74.567 252.681 90.3052C252.532 101.642 250.692 112.435 246.328 120.465C245.964 121.135 245.497 121.728 244.947 122.217C237.808 128.569 222.312 136.945 214.856 137.779C210.094 138.311 207.012 136.191 205.55 133.763C204.381 131.824 203.599 129.011 204.797 125.121C206.653 119.098 207.261 111.081 203.323 105.347C200.709 101.539 196.1 99.0878 189.018 98.5198C179.467 97.7532 174.829 105.177 173.437 112.377C172.585 116.787 172.546 121.219 174.053 123.385C176.239 126.525 176.504 129.514 175.92 132.096C175.269 134.979 173.08 138.012 168.991 139.794C163.964 141.987 155.052 142.652 147.07 140.753C141.27 139.374 136.022 136.623 132.693 132.734C131.771 131.657 131.181 130.282 131.016 128.816C131.016 128.816 126.879 92.3601 126.878 92.3555C126.812 92.1513 126.741 91.9491 126.67 91.7549C126.544 91.849 126.427 91.938 126.332 92.0169C117.83 99.0896 107.092 95.8799 101.423 89.0835C99.9813 87.3547 97.3795 81.4621 97.0654 74.7324C96.7467 67.9105 98.5943 60.542 104.594 56.0002C111.013 51.1419 116.32 52.1039 121.14 54.2158C122.596 54.8534 123.985 55.6304 125.342 56.2538C125.777 56.4539 126.18 56.7191 126.597 56.7946ZM172.133 23.8963C166.311 21.8127 140.179 27.4387 133.936 33.9085C128.106 39.9524 134.237 52.4752 132.33 60.6206C124.651 70.0047 118.64 53.6902 108.117 61.6562C99.9551 67.8355 103.908 82.1163 105.896 84.4989C109.696 89.0563 116.891 91.2766 122.591 86.5341C125.794 83.8693 130.248 81.1941 132.9 90.9759L137.11 128.084C146.264 138.777 175.213 136.11 169.216 127.492C163.492 119.266 167.126 89.9344 189.352 91.718C212.89 93.6078 214.713 114.132 210.614 127.431C207.605 137.194 231.904 125.008 241.053 116.866C250.727 99.0648 245.485 65.7043 241.506 48.7702C236.654 26.8554 210.112 25.8814 203.49 22.745C197.017 19.6811 203.152 40.9897 203.754 46.0296C205.022 56.6299 200.106 62.3065 186.587 61.8091C171.431 61.2529 168.47 50.2947 169.784 44.349C170.733 40.0471 177.954 25.9799 172.133 23.8963Z" fill="#121212"/>
<path fill-rule="evenodd" clip-rule="evenodd" d="M130.229 160.206C131.765 161.078 133.517 161.892 135.488 162.617C137.517 159.623 140.828 157.671 144.565 157.671C150.73 157.671 155.736 162.984 155.736 169.528C155.736 176.073 150.73 181.385 144.565 181.385C141.496 181.385 132.552 180.758 130.658 182.97C131.099 195.321 131.855 207.43 132.815 219.382L119.917 225.543C105.129 232.248 105.392 217.082 109.881 209.297C117.387 196.277 108.841 184.971 95.2115 185.353C74.4416 192.153 86.1116 208.47 85.1721 216.838C83.2668 233.8 0.510839 225.885 12.3245 183.676C14.7204 174.792 20.7957 173.954 26.8399 176.321C40.8421 189.981 49.1625 185.322 51.3396 160.857C50.1671 140.566 43.5048 142.22 23.1421 146.244C-2.90739 151.392 16.6837 85.1879 59.5071 104.541C49.8039 118.528 46.2618 139.183 67.4544 144.621C83.2626 146.994 92.6769 140.003 89.2926 114.269C106.117 123.237 119.704 127.273 131.043 127.885C130.464 138.895 130.214 149.653 130.229 160.206Z" fill="#0EA5E9"/>
<path fill-rule="evenodd" clip-rule="evenodd" d="M136.37 153.009C138.804 151.584 141.593 150.767 144.565 150.767C154.205 150.767 161.845 159.296 161.845 169.528C161.845 179.761 154.205 188.289 144.565 188.289C143.005 188.289 139.864 188.111 136.984 188.267C137.432 198.577 138.094 208.723 138.899 218.758C139.14 221.749 137.642 224.572 135.194 225.741L122.296 231.901C122.262 231.918 122.227 231.934 122.193 231.949C112.53 236.331 106.925 233.36 103.998 229.366C102.079 226.749 101.053 223.16 101.072 219.173C101.093 214.564 102.539 209.384 104.762 205.528C106.434 202.628 107.015 199.951 106.218 197.712C104.927 194.089 100.962 192.294 96.1326 192.248C92.7257 193.447 90.6053 194.794 89.5418 196.659C87.9156 199.512 89.0731 202.885 89.7549 205.95C90.7369 210.367 91.5922 214.513 91.2333 217.708C90.7837 221.709 88.5096 225.439 84.0789 228C78.1246 231.441 66.8936 232.926 54.6835 231.517C42.1207 230.066 28.5483 225.692 19.0449 218.361C8.0029 209.842 2.02808 197.617 6.48565 181.642C7.99157 176.074 10.6041 172.671 13.5819 170.649C17.883 167.73 23.3622 167.653 28.84 169.797C29.5714 170.083 30.2475 170.524 30.8331 171.095C33.1426 173.348 35.2418 175.034 37.1732 176.069C38.5425 176.802 39.6512 177.406 40.6105 176.818C41.6371 176.189 42.2411 174.771 42.8945 172.938C43.9891 169.865 44.7318 165.797 45.2083 160.736C45.0483 158.253 44.7991 156.172 44.4054 154.445C44.0783 153.009 43.8079 151.91 43.0914 151.298C41.9904 150.36 40.4052 150.549 38.3435 150.683C34.6605 150.923 30.0167 151.894 24.1949 153.045C17.9737 154.274 13.4715 152.507 10.3995 149.468C7.30481 146.405 5.47321 141.74 5.30895 136.075C4.74397 116.569 26.2927 82.0958 61.7755 98.1319C63.5618 98.9391 64.907 100.649 65.4068 102.749C65.9067 104.848 65.5017 107.09 64.3151 108.801C59.8285 115.268 56.4492 123.384 58.4734 129.909C59.6458 133.688 62.9345 136.325 68.5482 137.821C73.9772 138.609 78.4312 138.469 81.1315 135.242C84.1448 131.641 84.5547 125.209 83.2491 115.283C82.9178 112.765 83.8403 110.244 85.65 108.726C87.4589 107.208 89.8612 106.938 91.8995 108.025C107.8 116.501 120.617 120.412 131.334 120.989C132.966 121.077 134.497 121.899 135.588 123.272C136.679 124.644 137.239 126.453 137.142 128.294C136.702 136.673 136.454 144.905 136.37 153.009ZM130.229 160.206C130.214 149.653 130.464 138.895 131.043 127.885C119.704 127.273 106.117 123.237 89.2926 114.269C92.6769 140.003 83.2626 146.994 67.4544 144.621C46.2618 139.183 49.8039 118.528 59.5071 104.541C16.6837 85.1879 -2.90739 151.392 23.1421 146.244C43.5048 142.22 50.1671 140.566 51.3396 160.857C49.1625 185.322 40.8421 189.981 26.8399 176.321C20.7957 173.954 14.7204 174.792 12.3245 183.676C0.510839 225.885 83.2668 233.8 85.1721 216.838C86.1116 208.47 74.4416 192.153 95.2115 185.353C108.841 184.971 117.387 196.277 109.881 209.297C105.392 217.082 105.129 232.248 119.917 225.543L132.815 219.382C131.855 207.43 131.099 195.321 130.658 182.97C132.552 180.758 141.496 181.385 144.565 181.385C150.73 181.385 155.736 176.073 155.736 169.528C155.736 162.984 150.73 157.671 144.565 157.671C140.828 157.671 137.517 159.623 135.488 162.617C133.517 161.892 131.765 161.078 130.229 160.206Z" fill="#121212"/>
<path fill-rule="evenodd" clip-rule="evenodd" d="M135.77 130.351C134.102 144.329 135.103 143.978 135.722 155.951C134.49 156.015 160.675 149.471 162.006 171.846C162.874 186.438 147.979 193.67 137.272 185.277C134.931 183.443 137.359 204.166 137.928 214.572C138.005 224.585 164.12 221.548 162.171 207.945C159.139 186.788 170.742 177.084 185.265 182.577C197.582 187.235 199.36 203.937 192.002 212.167C183.012 222.223 197.918 227.629 214.378 224.217C229.833 221.014 246.658 210.036 246.359 187.832C246.244 179.297 242.164 180.903 238.365 180.884C219.228 189.497 215.426 178.805 216.86 162.813C221.145 148.75 226.396 151.121 238.296 157.237C241.779 157.723 245.076 156.648 248.012 152.554C249.874 141.906 250.173 131.979 246.569 121.013C232.634 137.821 201.835 142.049 205.155 125.282C212.336 112.151 206.071 92.7112 189.577 94.7243C162.438 98.0379 174.772 121.031 176.021 124.154C180.771 136.033 159.787 144.415 135.77 130.351Z" fill="#6366F1"/>
<path fill-rule="evenodd" clip-rule="evenodd" d="M137.737 162.457C137.23 162.64 136.692 162.752 136.131 162.78C132.999 162.943 131.609 161.026 131.212 160.553C129.92 159.011 129.435 157.27 129.532 155.42C128.881 143.644 127.95 143.691 129.665 129.325C129.927 127.131 131.133 125.236 132.901 124.241C134.67 123.246 136.78 123.274 138.563 124.318C150.781 131.473 162.01 132.343 168.219 129.265C169.538 128.612 170.912 128.109 170.399 126.825C169.793 125.309 167.027 119.7 166.23 113.467C165.55 108.152 166.221 102.507 169.535 97.7217C172.622 93.2607 178.318 89.2081 188.787 87.9294C197.912 86.8159 204.702 90.6721 209.015 96.5965C214.996 104.811 216.066 117.626 210.977 127.879C210.991 127.911 211.011 127.939 211.038 127.968C211.818 128.788 213.137 128.921 214.627 129.045C222.685 129.717 234.898 124.894 241.998 116.332C243.444 114.588 245.622 113.827 247.74 114.329C249.857 114.829 251.606 116.519 252.35 118.781C256.373 131.021 256.137 142.098 254.059 153.982C253.874 155.042 253.462 156.033 252.86 156.874C248.283 163.259 243.079 164.778 237.647 164.021C237.008 163.932 236.384 163.733 235.797 163.432C232.569 161.772 229.893 160.386 227.609 159.646C226.738 159.365 226.041 158.964 225.423 159.269C224.969 159.493 224.728 160.077 224.367 160.772C223.856 161.755 223.388 162.958 222.924 164.399C222.683 167.438 222.654 170.23 223.005 172.632C223.225 174.146 223.495 175.473 224.264 176.346C225.04 177.229 226.28 177.219 227.927 177.041C230.145 176.802 232.79 175.965 235.955 174.539C236.689 174.21 237.476 174.042 238.272 174.047C239.834 174.054 241.439 173.862 242.858 174.016C244.942 174.242 246.795 174.997 248.368 176.387C250.37 178.158 252.429 181.309 252.517 187.862C252.867 213.823 233.693 227.191 215.623 230.936C203.595 233.429 192.315 231.237 187.528 227.093C185.1 224.993 183.725 222.401 183.283 219.591C182.746 216.178 183.543 211.827 187.588 207.302C192.131 202.22 190.988 191.919 183.382 189.043C178.578 187.226 174.201 187.462 171.332 190.361C168.178 193.549 167.153 199.303 168.255 206.997C169.078 212.735 167.189 217.46 163.643 221C159.618 225.015 153.058 227.302 147.192 227.317C138.347 227.339 131.945 221.892 131.773 214.706C131.345 207.027 129.986 194.023 130.126 188.01C130.204 184.64 131.015 182.384 131.611 181.422C132.792 179.515 134.33 178.691 135.858 178.416C137.29 178.159 138.979 178.32 140.762 179.717C147.199 184.763 156.383 180.937 155.861 172.163C155.499 166.094 152.087 163.572 148.53 162.612C144.3 161.469 138.818 162.278 137.737 162.457ZM135.722 155.921C136.841 155.474 160.737 150.497 162.007 171.845C162.875 186.436 147.981 193.668 137.274 185.276C134.933 183.442 137.36 204.164 137.93 214.57C138.007 224.583 164.122 221.545 162.172 207.942C159.14 186.787 170.743 177.083 185.266 182.575C197.583 187.233 199.361 203.935 192.003 212.164C183.013 222.22 197.918 227.627 214.378 224.214C229.832 221.012 246.657 210.034 246.358 187.831C246.243 179.296 242.163 180.901 238.365 180.883C219.228 189.495 215.426 178.805 216.86 162.813C221.145 148.75 226.396 151.121 238.296 157.237C241.779 157.723 245.075 156.647 248.012 152.554C249.873 141.906 250.172 131.979 246.568 121.014C232.633 137.821 201.836 142.049 205.155 125.282C212.335 112.152 206.071 92.7126 189.578 94.7257C162.439 98.0392 174.773 121.032 176.022 124.154C180.771 136.034 159.788 144.415 135.772 130.351C134.106 144.318 135.103 143.978 135.722 155.921ZM135.722 155.921C135.668 155.943 135.668 155.953 135.724 155.951C135.723 155.94 135.722 155.931 135.722 155.921Z" fill="#121212"/>
</svg>
