<?xml version="1.0" encoding="UTF-8" standalone="no"?>
<!DOCTYPE svg PUBLIC "-//W3C//DTD SVG 1.1//EN" "http://www.w3.org/Graphics/SVG/1.1/DTD/svg11.dtd">
<svg width="100%" height="100%" viewBox="0 0 500 500" version="1.1" xmlns="http://www.w3.org/2000/svg" xmlns:xlink="http://www.w3.org/1999/xlink" xml:space="preserve" xmlns:serif="http://www.serif.com/" style="fill-rule:evenodd;clip-rule:evenodd;stroke-linecap:round;stroke-linejoin:round;stroke-miterlimit:1.5;">
    <g transform="matrix(1,0,0,1,-27.3333,12)">
        <g id="Layer4">
            <path d="M160.34,105.765C172.854,100.615 181.909,102.26 189.276,96.648C218.147,74.654 246.094,74.957 272.09,72.631C271.362,89.814 273.68,102.527 281.84,112.599C292.882,110.516 302.789,108.446 305.924,117.099C308.955,125.465 303.545,128.834 293.007,135.015C299.479,152.821 298.867,167.74 300.007,178.432C285.901,185.508 268.003,189.246 247.674,187.432C247.318,179.015 246.029,169.071 231.007,166.432C221.016,164.677 213.959,172.699 210.007,179.099C196.886,180.008 182.573,176.745 167.674,171.432C165.971,168.897 163.391,166.369 161.942,163.854C148.215,140.02 148.374,116.155 160.34,105.765Z" style="fill:rgb(34,211,238);stroke:rgb(255,173,173);stroke-opacity:0;stroke-width:1px;"/>
        </g>
    </g>
    <g transform="matrix(1,0,0,1,-28,13.6667)">
        <g id="Layer5">
            <path d="M277.007,69.432C275.298,82.174 277.161,95.801 284.34,106.765C289.929,106.026 295.903,104.284 300.605,105.141C306.707,106.253 311.229,108.933 312.007,113.765C313.965,125.925 306.645,129.19 299.674,135.099C301.311,143.181 303.334,151.117 303.718,158.808C304.075,165.961 305.332,172.541 306.757,176.682C320.546,172.726 337.549,167.941 354.007,165.765C354.871,173.26 361.226,174.742 369.424,176.682C379.916,175.493 382.918,171.735 385.007,163.432L423.34,166.432C437.926,143.825 432.397,118.592 417.674,92.765C405.65,76.94 396.225,61.295 358.34,59.432C330.783,59.639 303.676,63.002 277.007,69.432Z" style="fill:rgb(139,92,246);stroke:rgb(255,173,173);stroke-opacity:0;stroke-width:1px;"/>
        </g>
    </g>
    <g transform="matrix(1,0,0,1,-26.3333,8)">
        <g id="Layer6">
            <path d="M167.674,180.099C148.342,183.524 138.56,192.006 134.34,203.432C126.53,226.045 134.707,242.263 158.007,252.432C161.518,265.295 170.384,273.569 186.34,275.765C216.552,295.565 250.351,294.081 285.007,277.432L288.34,245.099C299.536,246.724 306.811,242.25 310.007,231.432C310.162,223.694 303.06,221.506 294.007,221.099L298.674,185.765C279.176,193.848 262.282,195.351 243.674,192.765C243.444,187.553 241.034,179.521 235.941,176.422C230.222,172.942 221.73,174.724 221.023,175.03C214.825,177.707 210.741,184.461 210.34,189.432L167.674,180.099Z" style="fill:rgb(14,165,233);stroke:rgb(255,173,173);stroke-opacity:0;stroke-width:1px;"/>
        </g>
    </g>
    <g transform="matrix(1,0,0,1,-27,9)">
        <g id="Layer7">
            <path d="M307.34,184.182C300,192.392 301.63,203.531 303.007,215.765C314.084,219.222 319.041,224.864 317.674,232.765C316.989,243.804 308.914,249.727 296.674,252.765L293.674,274.099C303.043,275.45 307.811,270.965 316.353,272.188C350.179,277.032 381.565,275.411 398.34,255.765C420.449,239.513 435.232,218.906 428.674,197.432L421.34,183.849L421.59,175.349L388.257,172.099C385.122,181.843 381.253,185.798 371.007,185.765C361.288,186.691 353.282,183.506 348.007,173.765L307.34,184.182Z" style="fill:rgb(99,102,241);stroke:rgb(255,173,173);stroke-opacity:0;stroke-width:1px;"/>
        </g>
    </g>
    <g transform="matrix(1,0,0,1,-37.0834,-11.8698)">
        <g id="Layer1">
            <path d="M177.916,384.01C198.665,385.15 208.287,381.345 213.303,375.491L232.307,326.343L224.443,314.548L240.17,306.684L250,311.927C270.969,308.899 284.514,301.63 293.25,291.612C296.668,291.522 298.352,284.497 296.527,263.434L267.693,245.74L297.837,251.638L280.799,231.979C272.456,236.53 255.101,233.572 236.239,229.358C252.953,226.691 267.587,225.038 275.557,224.115L257.864,214.941L272.936,209.043L285.387,216.252L290.629,207.077C296.933,212.538 301.147,217.999 300.459,223.46L311.599,238.532C325.331,233.032 336.53,224.155 345.02,211.664L353.539,214.286L329.292,245.085C341.285,243.615 351.376,240.877 358.126,235.911L360.092,243.775C352.346,251.218 343.374,256.21 333.879,260.157L325.36,273.263L323.17,296.302L316.186,311.927L272.28,344.037L263.761,383.355C276.956,390.174 288.138,390.953 297.837,387.287C290.122,393.193 281.743,397.108 272.28,397.772L254.587,401.704L292.595,410.878L310.944,423.329C295.087,415.403 263.236,424.265 229.685,402.359C219.069,408.169 207.536,414.461 191.678,416.776C193.787,410.863 199.18,403.903 210.026,399.738C197.841,404.077 184.422,403.482 168.742,393.84L193.644,388.598L177.916,384.01Z" style="fill:rgb(18,18,18);"/>
        </g>
    </g>
</svg>
