<svg xmlns="http://www.w3.org/2000/svg" xmlns:xlink="http://www.w3.org/1999/xlink" id="visual" version="1.1" width="100%" preserveAspectRatio="none" viewBox="0 0 900 107.45"><path d="M0 103L16.7 98.2C33.3 93.3 66.7 83.7 100 78.2C133.3 72.7 166.7 71.3 200 75.8C233.3 80.3 266.7 90.7 300 91C333.3 91.3 366.7 81.7 400 79.5C433.3 77.3 466.7 82.7 500 87.2C533.3 91.7 566.7 95.3 600 99.7C633.3 104 666.7 109 700 107C733.3 105 766.7 96 800 93.3C833.3 90.7 866.7 94.3 883.3 96.2L900 98L900 0L883.3 0C866.7 0 833.3 0 800 0C766.7 0 733.3 0 700 0C666.7 0 633.3 0 600 0C566.7 0 533.3 0 500 0C466.7 0 433.3 0 400 0C366.7 0 333.3 0 300 0C266.7 0 233.3 0 200 0C166.7 0 133.3 0 100 0C66.7 0 33.3 0 16.7 0L0 0Z" fill="#8e90f1"/><path d="M0 29L16.7 30.3C33.3 31.7 66.7 34.3 100 33.8C133.3 33.3 166.7 29.7 200 27.5C233.3 25.3 266.7 24.7 300 28.8C333.3 33 366.7 42 400 43.8C433.3 45.7 466.7 40.3 500 42.8C533.3 45.3 566.7 55.7 600 59C633.3 62.3 666.7 58.7 700 54.3C733.3 50 766.7 45 800 40.5C833.3 36 866.7 32 883.3 30L900 28L900 0L883.3 0C866.7 0 833.3 0 800 0C766.7 0 733.3 0 700 0C666.7 0 633.3 0 600 0C566.7 0 533.3 0 500 0C466.7 0 433.3 0 400 0C366.7 0 333.3 0 300 0C266.7 0 233.3 0 200 0C166.7 0 133.3 0 100 0C66.7 0 33.3 0 16.7 0L0 0Z" fill="#6366f1"/></svg>