<?xml version="1.0" encoding="UTF-8" standalone="no"?>
<!DOCTYPE svg PUBLIC "-//W3C//DTD SVG 1.1//EN" "http://www.w3.org/Graphics/SVG/1.1/DTD/svg11.dtd">
<svg width="100%" height="100%" viewBox="0 0 960 181" version="1.1" xmlns="http://www.w3.org/2000/svg" xmlns:xlink="http://www.w3.org/1999/xlink" xml:space="preserve" xmlns:serif="http://www.serif.com/" style="fill-rule:evenodd;clip-rule:evenodd;stroke-linejoin:round;stroke-miterlimit:2;">
    <g transform="matrix(1,0,0,1,-806.972,-514.066)">
        <g id="blue-wave-bottom.svg" transform="matrix(1,0,0,1,1286.97,598.742)">
            <clipPath id="_clip1">
                <rect x="-480" y="-84.676" width="960" height="180.676"/>
            </clipPath>
            <g clip-path="url(#_clip1)">
                <g transform="matrix(1,0,0,1,-480,-96)">
                    <clipPath id="_clip2">
                        <rect x="0" y="0" width="960" height="192"/>
                    </clipPath>
                    <g clip-path="url(#_clip2)">
                        <g transform="matrix(1,0,0,1,-0.001,-2.84217e-14)">
                            <g id="purple-wave-bottom.svg">
                                <g>
                                    <path d="M0,125L22.8,124C45.7,123 91.3,121 137,120.3C182.7,119.7 228.3,120.3 274,130C319.7,139.7 365.3,158.3 411.2,157.8C457,157.3 503,137.7 548.8,133.8C594.7,130 640.3,142 686,141C731.7,140 777.3,126 823,131.5C868.7,137 914.3,162 937.2,174.5L960,187L960,0L0,0L0,125Z" style="fill:rgb(34,211,238);fill-rule:nonzero;"/>
                                    <path d="M0,136L22.8,130.7C45.7,125.3 91.3,114.7 137,111C182.7,107.3 228.3,110.7 274,116C319.7,121.3 365.3,128.7 411.2,128.5C457,128.3 503,120.7 548.8,109.7C594.7,98.7 640.3,84.3 686,82.7C731.7,81 777.3,92 823,102.3C868.7,112.7 914.3,122.3 937.2,127.2L960,132L960,0L0,0L0,136Z" style="fill:rgb(0,189,238);fill-rule:nonzero;"/>
                                    <path d="M0,75L22.8,75C45.7,75 91.3,75 137,76.8C182.7,78.7 228.3,82.3 274,84.8C319.7,87.3 365.3,88.7 411.2,81C457,73.3 503,56.7 548.8,49.8C594.7,43 640.3,46 686,54.7C731.7,63.3 777.3,77.7 823,81.8C868.7,86 914.3,80 937.2,77L960,74L960,0L0,0L0,75Z" style="fill:rgb(14,165,233);fill-rule:nonzero;"/>
                                </g>
                            </g>
                        </g>
                    </g>
                </g>
            </g>
        </g>
    </g>
</svg>
