<?xml version="1.0" encoding="UTF-8" standalone="no"?>
<!DOCTYPE svg PUBLIC "-//W3C//DTD SVG 1.1//EN" "http://www.w3.org/Graphics/SVG/1.1/DTD/svg11.dtd">
<svg width="100%" height="100%" viewBox="0 0 960 113" version="1.1" xmlns="http://www.w3.org/2000/svg" xmlns:xlink="http://www.w3.org/1999/xlink" xml:space="preserve" xmlns:serif="http://www.serif.com/" style="fill-rule:evenodd;clip-rule:evenodd;stroke-linejoin:round;stroke-miterlimit:2;">
    <g transform="matrix(1,0,0,1,-376.671,-233.866)">
        <g id="layered-waves-haikei--24-.svg" serif:id="layered-waves-haikei (24).svg" transform="matrix(1,0,0,1,856.671,353.866)">
            <g transform="matrix(1,0,0,1,-480,-120)">
                <path d="M0,73L20,73.5C40,74 80,75 120,79.2C160,83.3 200,90.7 240,96.5C280,102.3 320,106.7 360,101.5C400,96.3 440,81.7 480,77.2C520,72.7 560,78.3 600,85.2C640,92 680,100 720,104C760,108 800,108 840,100.2C880,92.3 920,76.7 940,68.8L960,61L960,0L0,0L0,73Z" style="fill:rgb(141,101,255);fill-rule:nonzero;"/>
                <path d="M0,41L20,41.2C40,41.3 80,41.7 120,45.7C160,49.7 200,57.3 240,58.2C280,59 320,53 360,49.5C400,46 440,45 480,40.5C520,36 560,28 600,32.5C640,37 680,54 720,55.2C760,56.3 800,41.7 840,36C880,30.3 920,33.7 940,35.3L960,37L960,0L0,0L0,41Z" style="fill:rgb(119,83,255);fill-rule:nonzero;"/>
            </g>
        </g>
    </g>
</svg>
