<svg id="visual" viewBox="0 0 960 200" width="960" height="200" xmlns="http://www.w3.org/2000/svg" xmlns:xlink="http://www.w3.org/1999/xlink" version="1.1"><path d="M0 133L22.8 125.3C45.7 117.7 91.3 102.3 137 105.7C182.7 109 228.3 131 274 126C319.7 121 365.3 89 411.2 79.7C457 70.3 503 83.7 548.8 82.7C594.7 81.7 640.3 66.3 686 68.2C731.7 70 777.3 89 823 104.7C868.7 120.3 914.3 132.7 937.2 138.8L960 145L960 201L937.2 201C914.3 201 868.7 201 823 201C777.3 201 731.7 201 686 201C640.3 201 594.7 201 548.8 201C503 201 457 201 411.2 201C365.3 201 319.7 201 274 201C228.3 201 182.7 201 137 201C91.3 201 45.7 201 22.8 201L0 201Z" fill="#22d3ee"></path><path d="M0 80L22.8 86.5C45.7 93 91.3 106 137 118C182.7 130 228.3 141 274 142.3C319.7 143.7 365.3 135.3 411.2 124.7C457 114 503 101 548.8 99C594.7 97 640.3 106 686 118.3C731.7 130.7 777.3 146.3 823 147.7C868.7 149 914.3 136 937.2 129.5L960 123L960 201L937.2 201C914.3 201 868.7 201 823 201C777.3 201 731.7 201 686 201C640.3 201 594.7 201 548.8 201C503 201 457 201 411.2 201C365.3 201 319.7 201 274 201C228.3 201 182.7 201 137 201C91.3 201 45.7 201 22.8 201L0 201Z" fill="#0ea5e9"></path></svg>