<svg id="visual" viewBox="0 0 960 200" width="960" height="200" xmlns="http://www.w3.org/2000/svg" xmlns:xlink="http://www.w3.org/1999/xlink" version="1.1"><path d="M0 165L22.8 167C45.7 169 91.3 173 137 149.2C182.7 125.3 228.3 73.7 274 55.8C319.7 38 365.3 54 411.2 72.8C457 91.7 503 113.3 548.8 111.2C594.7 109 640.3 83 686 85.2C731.7 87.3 777.3 117.7 823 133.7C868.7 149.7 914.3 151.3 937.2 152.2L960 153L960 0L937.2 0C914.3 0 868.7 0 823 0C777.3 0 731.7 0 686 0C640.3 0 594.7 0 548.8 0C503 0 457 0 411.2 0C365.3 0 319.7 0 274 0C228.3 0 182.7 0 137 0C91.3 0 45.7 0 22.8 0L0 0Z" fill="#22d3ee"></path><path d="M0 30L22.8 34.2C45.7 38.3 91.3 46.7 137 55.5C182.7 64.3 228.3 73.7 274 66.8C319.7 60 365.3 37 411.2 35.3C457 33.7 503 53.3 548.8 68.3C594.7 83.3 640.3 93.7 686 97.5C731.7 101.3 777.3 98.7 823 100C868.7 101.3 914.3 106.7 937.2 109.3L960 112L960 0L937.2 0C914.3 0 868.7 0 823 0C777.3 0 731.7 0 686 0C640.3 0 594.7 0 548.8 0C503 0 457 0 411.2 0C365.3 0 319.7 0 274 0C228.3 0 182.7 0 137 0C91.3 0 45.7 0 22.8 0L0 0Z" fill="#0ea5e9"></path></svg>