<?xml version="1.0" encoding="UTF-8" standalone="no"?>
<!DOCTYPE svg PUBLIC "-//W3C//DTD SVG 1.1//EN" "http://www.w3.org/Graphics/SVG/1.1/DTD/svg11.dtd">
<svg width="100%" height="100%" viewBox="0 0 1920 925" version="1.1" xmlns="http://www.w3.org/2000/svg" xmlns:xlink="http://www.w3.org/1999/xlink" xml:space="preserve" xmlns:serif="http://www.serif.com/" style="fill-rule:evenodd;clip-rule:evenodd;stroke-linejoin:round;stroke-miterlimit:2;">
    <g transform="matrix(1,0,0,1,0,-229.069)">
        <g id="layered-waves-haikei--3-.svg" serif:id="layered-waves-haikei (3).svg" transform="matrix(-2,-1.24735e-16,-6.36051e-17,-1.50249,960,1002.86)">
            <g transform="matrix(1,0,0,1,-480,-100)">
                <clipPath id="_clip1">
                    <rect x="0" y="0" width="960" height="200"/>
                </clipPath>
                <g clip-path="url(#_clip1)">
                    <path d="M0,53L20,66.2C40,79.3 80,105.7 120,107.2C160,108.7 200,85.3 240,73C280,60.7 320,59.3 360,68.7C400,78 440,98 480,102C520,106 560,94 600,93.5C640,93 680,104 720,111.8C760,119.7 800,124.3 840,121.2C880,118 920,107 940,101.5L960,96L960,201L0,201L0,53Z" style="fill:rgb(34,211,238);fill-rule:nonzero;"/>
                    <path d="M0,112L20,119.2C40,126.3 80,140.7 120,148.5C160,156.3 200,157.7 240,155.2C280,152.7 320,146.3 360,136.8C400,127.3 440,114.7 480,115.3C520,116 560,130 600,132.8C640,135.7 680,127.3 720,124.5C760,121.7 800,124.3 840,125.7C880,127 920,127 940,127L960,127L960,201L0,201L0,112Z" style="fill:rgb(14,165,233);fill-rule:nonzero;"/>
                </g>
            </g>
        </g>
        <g id="layered-waves-haikei--4-.svg" serif:id="layered-waves-haikei (4).svg" transform="matrix(2,3.67523e-17,-3.62389e-17,-1.72896,960,401.966)">
            <g transform="matrix(1,0,0,1,-480,-100)">
                <path d="M0,70L20,69.3C40,68.7 80,67.3 120,77.7C160,88 200,110 240,113.2C280,116.3 320,100.7 360,100C400,99.3 440,113.7 480,111.8C520,110 560,92 600,80.7C640,69.3 680,64.7 720,69.5C760,74.3 800,88.7 840,92.8C880,97 920,91 940,88L960,85L960,0L0,0L0,70Z" style="fill:rgb(34,211,238);fill-rule:nonzero;"/>
                <path d="M0,40L20,40.8C40,41.7 80,43.3 120,52.7C160,62 200,79 240,78C280,77 320,58 360,54.7C400,51.3 440,63.7 480,71C520,78.3 560,80.7 600,74.3C640,68 680,53 720,50C760,47 800,56 840,65C880,74 960,92 960,92L960,0L0,0L0,40Z" style="fill:rgb(14,165,233);fill-rule:nonzero;"/>
            </g>
        </g>
        <g transform="matrix(0.973758,0,0,0.36227,23.1251,523.235)">
            <g id="Layer1">
                <rect x="-23.748" y="114.653" width="1971.74" height="847.864" style="fill:rgb(14,165,233);"/>
            </g>
        </g>
    </g>
</svg>
