<svg xmlns:inkscape="http://www.inkscape.org/namespaces/inkscape" xmlns:sodipodi="http://sodipodi.sourceforge.net/DTD/sodipodi-0.dtd" xmlns="http://www.w3.org/2000/svg" xmlns:svg="http://www.w3.org/2000/svg" version="1.1" id="svg1" xml:space="preserve" inkscape:export-filename="bitmap.svg" inkscape:export-xdpi="96" inkscape:export-ydpi="96" viewBox="-0.73 0.01 1280.76 332.92" preserveAspectRatio="none"><sodipodi:namedview id="namedview1" pagecolor="#ffffff" bordercolor="#000000" borderopacity="0.25" inkscape:showpageshadow="2" inkscape:pageopacity="0.0" inkscape:pagecheckerboard="0" inkscape:deskcolor="#d1d1d1" inkscape:document-units="px"/><defs id="defs1"/><g inkscape:label="Layer 1" inkscape:groupmode="layer" id="layer1"><path d="M -0.15174195,332.93653 21.183265,332.60021 c 21.335007,-0.44841 64.00502,-1.12104 106.675055,-13.67674 42.67,-12.5557 85.34002,-36.77026 128.01006,-49.32596 42.66999,-12.5557 85.34001,-13.22833 128.01003,-10.31362 42.67,3.02683 85.34003,9.75309 128.01004,9.19257 42.67001,-0.56052 85.34003,-8.40783 128.01003,-12.6678 42.67002,-4.37208 85.34005,-5.0447 128.01005,0.56052 42.67001,5.60522 85.34003,17.4883 128.01004,23.31773 42.67001,5.82943 85.34001,5.38101 128.01003,-0.56053 42.67,-5.94153 85.3401,-17.6004 128.01,-18.16092 42.67,-0.56052 85.3401,9.9773 106.675,15.1341 l 21.335,5.26891 V 127.78536 h -21.335 c -21.3349,0 -64.005,0 -106.675,0 -42.6699,0 -85.34,0 -128.01,0 -42.67002,0 -85.34002,0 -128.01003,0 -42.67001,0 -85.34003,0 -128.01004,0 -42.67,0 -85.34003,0 -128.01005,0 -42.67,0 -85.34002,0 -128.01003,0 -42.67001,0 -85.34004,0 -128.01004,0 -42.67002,0 -85.34004,0 -128.01003,0 -42.67004,0 -85.34006,0 -128.01006,0 -42.670035,0 -85.340048,0 -106.675055,0 H -0.15174195 Z" fill="#0ea5e9" stroke-linecap="round" stroke-linejoin="miter" id="path1-1" style="stroke-width:1.26273"/><g id="g1" transform="matrix(1.4220514,0,0,1.7365626,0.16152521,121.88766)"><path d="m 0,84 16.7,-0.3 c 16.6,-0.4 50,-1 83.3,-3.9 C 133.3,77 166.7,72 200,74.5 233.3,77 266.7,87 300,89.5 333.3,92 366.7,87 400,82 433.3,77 466.7,72 500,68.5 533.3,65 566.7,63 600,67 c 33.3,4 66.7,14 100,14.5 33.3,0.5 66.7,-8.5 100,-11.8 33.3,-3.4 66.7,-1 83.3,0.1 L 900,71 V 0 H 883.3 800 700 600 500 400 300 200 100 16.7 0 c -0.47098369,27.903579 -1.1302951,55.768604 0,84 z" fill="#61dcef" id="path1-8" sodipodi:nodetypes="cccsssssscccccccccccccccc"/><path d="M 0,43 16.7,39.5 C 33.3,36 66.7,29 100,30.3 c 33.3,1.4 66.7,11 100,10.9 C 233.3,41 266.7,31 300,32 c 33.3,1 66.7,13 100,17 33.3,4 66.7,0 100,-5 33.3,-5 66.7,-11 100,-11.8 33.3,-0.9 66.7,3.5 100,3.6 33.3,0.2 66.7,-3.8 100,-3 33.3,0.9 66.7,6.5 83.3,9.4 L 900,45 V 0 H 883.3 C 866.7,0 833.3,0 800,0 766.7,0 733.3,0 700,0 666.7,0 633.3,0 600,0 566.7,0 533.3,0 500,0 466.7,0 433.3,0 400,0 366.7,0 333.3,0 300,0 266.7,0 233.3,0 200,0 166.7,0 133.3,0 100,0 66.7,0 33.3,0 16.7,0 H 0 Z" fill="#22d3ee" id="path2"/></g><path d="M 0.00489458,212.4202 21.338721,212.072 c 21.333827,-0.46428 64.001476,-1.1607 106.669129,-14.16052 42.66765,-12.99982 85.3353,-38.07089 128.00296,-51.07071 42.66765,-12.99981 85.3353,-13.69623 128.00295,-10.67842 42.66766,3.13389 85.33531,10.09807 128.00296,9.51773 42.66765,-0.58036 85.33531,-8.70525 128.00296,-13.11589 42.66765,-4.52672 85.3353,-5.22314 128.00296,0.58035 42.66765,5.80348 85.3353,18.10688 128.00295,24.14251 42.66766,6.03563 85.33531,5.57135 128.00291,-0.58034 42.6677,-6.15171 85.3353,-18.22295 128.003,-18.80331 42.6676,-0.58035 85.3354,10.33021 106.6691,15.66942 l 21.3338,5.45527 V 0.01248256 h -21.3338 c -21.3337,0 -64.0015,0 -106.6691,0 -42.6677,0 -85.3353,0 -128.003,0 -42.6676,0 -85.33525,0 -128.00291,0 -42.66765,0 -85.3353,0 -128.00295,0 -42.66766,0 -85.33531,0 -128.00296,0 -42.66765,0 -85.33531,0 -128.00296,0 -42.66765,0 -85.3353,0 -128.00296,0 -42.66765,0 -85.3353,0 -128.00295,0 -42.66766,0 -85.33531,0 -128.00296,0 -42.667653,0 -85.335302,0 -106.669129,0 H 0.00489458 Z" fill="#0ea5e9" stroke-linecap="round" stroke-linejoin="miter" id="path1" style="stroke-width:1.28485"/></g></svg>