<?xml version="1.0" encoding="UTF-8" standalone="no"?>
<!DOCTYPE svg PUBLIC "-//W3C//DTD SVG 1.1//EN" "http://www.w3.org/Graphics/SVG/1.1/DTD/svg11.dtd">
<svg width="100%" height="100%" viewBox="0 0 1920 927" version="1.1" xmlns="http://www.w3.org/2000/svg" xmlns:xlink="http://www.w3.org/1999/xlink" xml:space="preserve" xmlns:serif="http://www.serif.com/" style="fill-rule:evenodd;clip-rule:evenodd;stroke-linejoin:round;stroke-miterlimit:2;">
    <g transform="matrix(1,0,0,1,0,-153.368)">
        <g id="Layer1" transform="matrix(1,0,0,0.826377,0,76.5249)">
            <g transform="matrix(0.973758,0,0,0.824242,23.1251,198.288)">
                <rect x="-23.748" y="114.653" width="1971.74" height="847.864" style="fill:rgb(99,102,241);"/>
            </g>
            <g id="layered-waves-haikei--5-.svg" serif:id="layered-waves-haikei (5).svg" transform="matrix(2,0,0,-1.2101,960,213.998)">
                <g transform="matrix(1,0,0,1,-480,-100)">
                    <path d="M0,72L17.8,66.3C35.7,60.7 71.3,49.3 106.8,60.7C142.3,72 177.7,106 213.2,110.3C248.7,114.7 284.3,89.3 320,78C355.7,66.7 391.3,69.3 426.8,82.8C462.3,96.3 497.7,120.7 533.2,113.8C568.7,107 604.3,69 640,66.5C675.7,64 711.3,97 746.8,113.2C782.3,129.3 817.7,128.7 853.2,127C888.7,125.3 924.3,122.7 942.2,121.3L960,120L960,0L0,0L0,72Z" style="fill:rgb(139,92,246);fill-rule:nonzero;"/>
                    <path d="M0,41L17.8,39.2C35.7,37.3 71.3,33.7 106.8,41.7C142.3,49.7 177.7,69.3 213.2,79.2C248.7,89 284.3,89 320,82.7C355.7,76.3 391.3,63.7 426.8,51.8C462.3,40 497.7,29 533.2,36.7C568.7,44.3 604.3,70.7 640,79C675.7,87.3 711.3,77.7 746.8,80.8C782.3,84 817.7,100 853.2,108.3C888.7,116.7 924.3,117.3 942.2,117.7L960,118L960,0L0,0L0,41Z" style="fill:rgb(99,102,241);fill-rule:nonzero;"/>
                </g>
            </g>
            <g id="layered-waves-haikei--6-.svg" serif:id="layered-waves-haikei (6).svg" transform="matrix(2,1.48195e-16,-1.22465e-16,-1.2101,960,1093.3)">
                <g transform="matrix(1,0,0,1,-480,-100)">
                    <clipPath id="_clip1">
                        <rect x="0" y="0" width="960" height="200"/>
                    </clipPath>
                    <g clip-path="url(#_clip1)">
                        <path d="M0,88L17.8,95C35.7,102 71.3,116 106.8,115.8C142.3,115.7 177.7,101.3 213.2,87C248.7,72.7 284.3,58.3 320,48.2C355.7,38 391.3,32 426.8,47.8C462.3,63.7 497.7,101.3 533.2,105.3C568.7,109.3 604.3,79.7 640,68.7C675.7,57.7 711.3,65.3 746.8,83.2C782.3,101 817.7,129 853.2,140.5C888.7,152 924.3,147 942.2,144.5L960,142L960,201L0,201L0,88Z" style="fill:rgb(139,92,246);fill-rule:nonzero;"/>
                        <path d="M0,155L17.8,147.5C35.7,140 71.3,125 106.8,124.3C142.3,123.7 177.7,137.3 213.2,136C248.7,134.7 284.3,118.3 320,123C355.7,127.7 391.3,153.3 426.8,151.2C462.3,149 497.7,119 533.2,119.3C568.7,119.7 604.3,150.3 640,166C675.7,181.7 711.3,182.3 746.8,179C782.3,175.7 817.7,168.3 853.2,160.3C888.7,152.3 924.3,143.7 942.2,139.3L960,135L960,201L0,201L0,155Z" style="fill:rgb(99,102,241);fill-rule:nonzero;"/>
                    </g>
                </g>
            </g>
        </g>
    </g>
</svg>
