<svg xmlns="http://www.w3.org/2000/svg" xmlns:xlink="http://www.w3.org/1999/xlink" id="visual" version="1.1" viewBox="0 0 900 129.25"><path d="M0 75L21.5 76.3C43 77.7 86 80.3 128.8 91C171.7 101.7 214.3 120.3 257.2 126.7C300 133 343 127 385.8 115.7C428.7 104.3 471.3 87.7 514.2 91.2C557 94.7 600 118.3 642.8 124.3C685.7 130.3 728.3 118.7 771.2 108.2C814 97.7 857 88.3 878.5 83.7L900 79L900 0L878.5 0C857 0 814 0 771.2 0C728.3 0 685.7 0 642.8 0C600 0 557 0 514.2 0C471.3 0 428.7 0 385.8 0C343 0 300 0 257.2 0C214.3 0 171.7 0 128.8 0C86 0 43 0 21.5 0L0 0Z" fill="#70bddd"/><path d="M0 27L21.5 29.8C43 32.7 86 38.3 128.8 45.3C171.7 52.3 214.3 60.7 257.2 59.7C300 58.7 343 48.3 385.8 50.8C428.7 53.3 471.3 68.7 514.2 72.5C557 76.3 600 68.7 642.8 66.8C685.7 65 728.3 69 771.2 67.5C814 66 857 59 878.5 55.5L900 52L900 0L878.5 0C857 0 814 0 771.2 0C728.3 0 685.7 0 642.8 0C600 0 557 0 514.2 0C471.3 0 428.7 0 385.8 0C343 0 300 0 257.2 0C214.3 0 171.7 0 128.8 0C86 0 43 0 21.5 0L0 0Z" fill="#51aed4"/></svg>