<svg xmlns="http://www.w3.org/2000/svg" xmlns:xlink="http://www.w3.org/1999/xlink" id="visual" version="1.1" viewBox="0 0 900 90.16"><path d="M0 84L16.7 83.7C33.3 83.3 66.7 82.7 100 79.8C133.3 77 166.7 72 200 74.5C233.3 77 266.7 87 300 89.5C333.3 92 366.7 87 400 82C433.3 77 466.7 72 500 68.5C533.3 65 566.7 63 600 67C633.3 71 666.7 81 700 81.5C733.3 82 766.7 73 800 69.7C833.3 66.3 866.7 68.7 883.3 69.8L900 71L900 0L883.3 0C866.7 0 833.3 0 800 0C766.7 0 733.3 0 700 0C666.7 0 633.3 0 600 0C566.7 0 533.3 0 500 0C466.7 0 433.3 0 400 0C366.7 0 333.3 0 300 0C266.7 0 233.3 0 200 0C166.7 0 133.3 0 100 0C66.7 0 33.3 0 16.7 0L0 0Z" fill="#61dcef"/><path d="M0 43L16.7 39.5C33.3 36 66.7 29 100 30.3C133.3 31.7 166.7 41.3 200 41.2C233.3 41 266.7 31 300 32C333.3 33 366.7 45 400 49C433.3 53 466.7 49 500 44C533.3 39 566.7 33 600 32.2C633.3 31.3 666.7 35.7 700 35.8C733.3 36 766.7 32 800 32.8C833.3 33.7 866.7 39.3 883.3 42.2L900 45L900 0L883.3 0C866.7 0 833.3 0 800 0C766.7 0 733.3 0 700 0C666.7 0 633.3 0 600 0C566.7 0 533.3 0 500 0C466.7 0 433.3 0 400 0C366.7 0 333.3 0 300 0C266.7 0 233.3 0 200 0C166.7 0 133.3 0 100 0C66.7 0 33.3 0 16.7 0L0 0Z" fill="#22d3ee"/></svg>