<svg xmlns="http://www.w3.org/2000/svg" xmlns:xlink="http://www.w3.org/1999/xlink" id="visual" version="1.1" viewBox="0 0 900 183"><path d="M0 183L15 182.7C30 182.3 60 181.7 90 170.5C120 159.3 150 137.7 180 126.5C210 115.3 240 114.7 270 117.3C300 120 330 126 360 125.5C390 125 420 118 450 114.2C480 110.3 510 109.7 540 114.7C570 119.7 600 130.3 630 135.5C660 140.7 690 140.3 720 135C750 129.7 780 119.3 810 118.8C840 118.3 870 127.7 885 132.3L900 137L900 0L885 0C870 0 840 0 810 0C780 0 750 0 720 0C690 0 660 0 630 0C600 0 570 0 540 0C510 0 480 0 450 0C420 0 390 0 360 0C330 0 300 0 270 0C240 0 210 0 180 0C150 0 120 0 90 0C60 0 30 0 15 0L0 0Z" fill="#0ea5e9" stroke-linecap="round" stroke-linejoin="miter"/></svg>