<svg width="304" height="280" viewBox="0 0 304 280" fill="none" xmlns="http://www.w3.org/2000/svg">
<g clip-path="url(#clip0_36_2)">
<path fill-rule="evenodd" clip-rule="evenodd" d="M304 30.7267C304 13.7682 290.232 0 273.273 0H30.726C13.768 0 0 13.7682 0 30.7267V248.607C0 265.565 13.768 279.333 30.726 279.333H273.273C290.232 279.333 304 265.565 304 248.607V30.7267Z" fill="#121212"/>
<path fill-rule="evenodd" clip-rule="evenodd" d="M39.3875 58.9624C38.3685 55.3807 37.8177 51.5677 37.8177 47.6001C37.8177 26.0132 54.1142 9 73.4929 9C85.1455 9 95.684 15.1513 102.234 24.7498C104.031 23.69 106.14 23.2035 108.275 23.4097C108.275 23.4097 127.045 25.2388 140.455 28.6797C148.353 30.705 154.577 33.8517 157.159 36.6803C159.58 39.3342 161.436 43.6287 161.922 48.9628C162.676 57.2099 160.302 68.503 157.052 74.6003C153.75 80.7943 148.73 83.149 144.98 83.2609C142.122 83.3464 139.115 82.5292 136.293 79.9068C135.056 78.759 132.979 77.5307 132.186 77.0794C130.083 78.3605 127.335 80.993 125.242 83.9586C124.099 85.5779 123.004 87.265 122.927 88.9923C122.8 91.9039 123.625 95.7911 125.346 99.1301C126.268 100.917 127.364 102.726 129.053 103.565C130.127 103.168 132.073 102.434 133.238 101.916C136.016 100.678 138.607 99.638 140.323 99.2684C143.952 98.4877 147.775 99.369 151.057 102.249C154.296 105.093 156.784 110.853 157.158 113.316C160.816 137.396 160.302 147.83 159.505 150.347C157.876 155.476 154.395 156.921 152.26 157.509C150.508 157.992 148.592 158.124 146.646 157.539C131.786 155.812 120.457 150.219 109.424 145.205C108.126 158.067 103.766 165.74 99.1758 170.276C91.6414 177.723 82.4306 178.324 76.365 176.839C63.6727 173.732 50.2564 158.118 53.4131 141.297C54.2473 136.851 56.1843 132.238 59.7288 127.79C58.5355 127.755 57.2755 128.059 56.1108 128.186C52.3723 128.593 48.9047 129.023 46.3286 128.743C45.3635 128.637 44.7531 129.396 44.0646 130.015C42.5717 131.358 41.2361 133.04 39.8981 134.732C36.4144 139.139 32.895 143.553 28.9511 146.261C26.1042 148.217 22.4484 148.564 19.2836 147.18C16.1189 145.796 13.8916 142.876 13.3948 139.458C12.6305 134.201 10.6305 117.104 10.9024 111.384C11.7883 92.6972 17.7529 73.142 25.628 61.6527C27.1416 59.4451 29.4767 57.9353 32.1124 57.4638C34.6438 57.01 37.2486 57.5493 39.3875 58.9624ZM150.063 137.792C150.125 137.798 150.187 137.803 150.249 137.809C152.411 138.013 154.448 138.914 156.052 140.377C154.056 138.557 152.024 137.807 150.061 137.748C149.683 132.559 148.835 125.113 147.271 114.818C147.027 113.209 144.769 108.54 142.428 109.044C139.307 109.717 132.41 113.941 128.543 113.821C117.506 111.859 112.555 97.2481 112.937 88.5523C113.32 79.8577 123.249 70.2618 128.543 67.6833C132.951 65.5373 138.2 68.0303 143.099 72.58C148.905 77.9745 155.735 49.9573 149.772 43.42C143.808 36.884 107.315 33.3626 107.315 33.3626C111.846 47.7396 97.2514 69.2988 93.6139 66.23C96.2818 61.7206 99.1677 53.4006 99.1677 47.6001C99.1677 31.8151 87.6631 18.9995 73.4929 18.9995C59.3226 18.9995 47.818 31.8151 47.818 47.6001C47.818 63.3851 59.3226 76.2006 73.4929 76.2006C75.0225 76.2006 76.5211 76.0523 77.9772 75.7657C80.2114 76.745 72.3741 83.5111 65.5466 81.6379C54.7763 78.6848 47.1043 76.657 33.8761 67.3062C26.8306 77.586 21.683 95.1386 20.8912 111.858C20.6376 117.189 22.578 133.119 23.2906 138.018C31.2989 132.519 36.3432 117.595 47.4118 118.801C54.1039 119.53 68.4221 112.74 73.0706 128.692C53.249 143.917 66.5036 164.129 78.7426 167.125C85.8856 168.874 100.324 165.321 99.7988 135.598C101.032 130.97 101.093 130.887 106.918 133.178C119.646 138.51 131.841 146.122 149.313 147.765C150.085 148.469 150.651 145.902 150.063 137.792Z" fill="#121212"/>
<path fill-rule="evenodd" clip-rule="evenodd" d="M65.5467 81.6379C72.3742 83.5111 80.2115 76.745 77.9773 75.7657C76.5212 76.0523 75.0226 76.2006 73.493 76.2006C59.3228 76.2006 47.8181 63.3851 47.8181 47.6001C47.8181 31.8151 59.3228 18.9995 73.493 18.9995C87.6632 18.9995 99.1678 31.8151 99.1678 47.6001C99.1678 53.4006 96.2819 61.7206 93.614 66.23C97.2516 69.2988 111.846 47.7396 107.315 33.3627C107.315 33.3627 143.808 36.884 149.772 43.42C155.735 49.9573 148.905 77.9745 143.099 72.58C138.201 68.0303 132.951 65.5373 128.543 67.6833C123.249 70.2618 113.32 79.8577 112.938 88.5523C112.555 97.2481 117.506 111.859 128.543 113.821C132.41 113.941 139.307 109.717 142.428 109.044C144.769 108.54 147.027 113.209 147.271 114.818C151.291 141.277 150.578 148.92 149.313 147.765C131.841 146.122 119.646 138.51 106.918 133.178C101.093 130.887 101.033 130.97 99.799 135.598C100.325 165.321 85.8858 168.874 78.7427 167.125C66.5037 164.129 53.2491 143.917 73.0707 128.692C68.4223 112.74 54.104 119.53 47.4119 118.801C36.3433 117.595 31.299 132.519 23.2907 138.018C22.5781 133.119 20.6378 117.189 20.8913 111.858C21.6831 95.1386 26.8307 77.586 33.8762 67.3062C47.1044 76.657 54.7764 78.6848 65.5467 81.6379Z" fill="#2BBDFF"/>
<path fill-rule="evenodd" clip-rule="evenodd" d="M141.378 66.0974C141.069 63.4476 140.811 60.5609 140.837 57.764C140.908 50.2462 142.952 43.3578 147.178 39.0212C152.278 33.7863 166.774 28.1618 179.472 25.6326C188.797 23.7756 197.137 23.7759 200.595 24.963C206.748 27.0738 210.156 32.1953 209.819 39.8518C209.545 46.0892 205.136 55.7084 204.289 59.3832C203.632 62.2343 206.201 66.1181 213.542 66.3045C217.619 66.4078 220.583 66.4042 222.261 64.7883C223.41 63.6813 223.021 61.8774 222.774 59.717C222.289 55.4533 218.788 44.9849 219.304 37.9385C219.817 30.9423 223.103 25.9564 228.65 23.5721C240.193 18.6095 252.08 20.4875 262.784 27.5775C276.138 36.4197 287.692 54.1382 292.755 74.5677C298.349 97.143 296.057 122.74 281.017 142.49C276.624 148.259 263.48 156.696 253.301 160.4C247.278 162.591 241.959 162.978 238.874 162.214C234.684 161.178 232.018 158.69 230.548 155.397C229.516 153.082 228.918 149.912 230.237 145.767C232.209 139.573 233.075 131.346 229.031 125.515C226.585 121.99 222.163 119.879 215.475 119.422C206.496 118.809 202.525 126.205 201.167 132.906C200.626 135.573 200.484 138.228 200.727 140.54C200.858 141.79 200.927 142.924 201.419 143.625C204.246 147.644 204.573 151.467 203.786 154.805C202.871 158.687 199.923 162.706 194.343 165.162C188.154 167.884 177.218 168.9 167.44 166.709C160.21 165.088 153.724 161.734 149.601 156.985C148.262 155.444 147.427 153.53 147.208 151.501L143.281 115.072C132.923 120.504 121.268 116.59 114.783 108.921C113.05 106.871 109.8 99.8628 109.478 91.8077C109.148 83.5624 111.689 74.6869 119.077 69.1133C126.136 63.7914 133.746 63.828 140.777 65.9126C140.972 65.971 141.172 66.0322 141.378 66.0974ZM197.348 34.4218C190.822 32.1822 161.408 38.745 154.34 45.9989C147.738 52.7753 152.528 70.4257 152.32 75.6506C151.856 87.3226 136.99 68.1312 125.099 77.0977C115.876 84.0529 120.205 99.846 122.42 102.465C126.654 107.473 134.722 109.848 141.167 104.517C144.788 101.521 151.564 94.9381 152.718 109.317L157.151 150.429C167.353 162.179 199.911 158.863 193.24 149.377C186.872 140.323 191.191 107.74 216.157 109.445C242.596 111.251 244.48 133.996 239.766 148.8C236.307 159.667 266.553 144.978 273.062 136.432C305.949 93.2427 267.396 17.8007 232.6 32.7583C225.285 35.9031 232.074 53.0015 232.71 58.5849C234.05 70.3283 228.479 76.6859 213.289 76.3007C196.261 75.8703 193.021 63.7508 194.544 57.139C195.646 52.3552 203.875 36.6614 197.348 34.4218Z" fill="#121212"/>
<path fill-rule="evenodd" clip-rule="evenodd" d="M197.348 34.4218C190.822 32.1822 161.408 38.745 154.34 45.9989C147.738 52.7753 152.528 70.4257 152.32 75.6506C151.856 87.3226 136.99 68.1313 125.099 77.0977C115.876 84.0529 120.205 99.8461 122.42 102.465C126.654 107.473 134.722 109.848 141.167 104.517C144.788 101.521 151.564 94.9381 152.718 109.317L157.151 150.429C167.353 162.179 199.911 158.863 193.24 149.377C186.872 140.323 191.191 107.74 216.157 109.445C242.596 111.251 244.48 133.996 239.766 148.8C236.307 159.667 266.553 144.978 273.062 136.432C305.949 93.2428 267.396 17.8007 232.6 32.7584C225.285 35.9031 232.074 53.0015 232.71 58.585C234.05 70.3283 228.479 76.686 213.289 76.3007C196.261 75.8703 193.021 63.7509 194.544 57.139C195.646 52.3552 203.875 36.6614 197.348 34.4218Z" fill="#8D65FF"/>
<path fill-rule="evenodd" clip-rule="evenodd" d="M189.921 148.971C188.912 146.632 186.291 140.824 185.509 134.411C184.739 128.086 185.676 121.355 189.724 115.601C193.599 110.092 200.613 104.963 213.615 103.243C239.674 99.7942 251.805 127.572 242.264 148.823C243.116 148.925 244.2 149.014 245.057 148.947C245.81 148.89 246.593 148.788 247.4 148.65C248.371 148.483 249.375 148.26 250.405 147.986C258.021 145.966 266.892 141.281 274.844 134.356C276.985 132.49 279.818 131.624 282.636 131.972C285.454 132.319 287.991 133.849 289.614 136.178C294.824 143.653 295.486 151.783 294.038 160.255C293.032 166.147 290.853 172.227 289.755 178.173C288.375 185.643 283.214 191.402 277.599 193.088C273.023 194.463 267.52 194.028 262.13 188.946C260.982 187.864 259.927 187.166 258.832 187.107C256.745 186.997 255.022 188.761 254.669 190.324C253.884 193.808 253.502 196.51 255.33 197.93C257.765 199.823 261.688 199.349 266.376 198.146C267.165 197.942 267.977 197.837 268.791 197.831C270.669 197.819 272.603 197.592 274.308 197.754C277.371 198.045 280.078 199.104 282.38 201.099C284.898 203.281 287.714 207.165 287.761 215.354C287.849 230.621 283.792 241.361 277.403 248.982C270.881 256.764 261.72 261.491 250.711 263.871C238.986 266.405 227.855 265.392 221.251 262.407C215.175 259.661 211.825 255.22 210.841 250.408C209.941 246.007 210.778 240.36 216.203 234.357C217.942 232.434 217.036 229.31 215.864 226.635C214.526 223.58 212.167 220.608 208.712 220.395C203.526 220.075 198.632 222.334 196.018 225.728C194.657 227.493 194.325 229.778 196.24 231.666C199.847 235.218 201.522 240.911 197.544 247.451C195.446 250.902 190.763 255.339 184.274 258.384C175.398 262.549 163.29 264.254 151.762 258.344C148.576 256.711 146.507 253.498 146.337 249.922C145.889 240.537 141.873 226.145 141.926 220.732C142.017 211.488 148.163 208.812 152.624 208.713C155.755 208.644 156.767 207.679 157.948 206.855C159.687 205.641 161.546 204.528 164.084 203.673C166.773 202.766 169.668 201.821 172.121 200.421C173.353 199.718 174.702 199.024 174.615 197.376C174.318 191.693 170.507 189.303 166.674 188.215C161.333 186.698 154.261 187.297 153.261 187.391C152.791 187.491 152.312 187.557 151.826 187.588C142.617 188.168 141.301 179.505 141.211 178.67C141.208 178.643 141.205 178.502 141.217 178.27C140.069 164.713 142.235 168.766 144.388 152.017C144.813 148.711 146.857 145.833 149.84 144.345C152.824 142.856 156.352 142.952 159.25 144.6C169.841 150.623 179.709 152.18 186.504 150.506C187.704 150.209 189.167 149.413 189.921 148.971ZM151.195 177.593C151.142 177.605 151.14 177.61 151.195 177.608C151.196 177.603 151.195 177.598 151.195 177.593ZM151.195 177.593C152.465 177.293 183.358 173.112 184.602 196.853C185.128 206.887 175.496 210.379 167.279 213.149C162.284 214.833 161.911 218.509 152.845 218.711C149.643 218.782 155.777 237.941 156.325 249.446C173.831 258.42 193.178 242.685 189.223 238.789C176.843 226.594 191.897 209.337 209.329 210.413C223.805 211.308 231.941 231.859 223.622 241.063C213.458 252.307 230.118 258.09 248.598 254.096C265.948 250.345 277.902 239.974 277.761 215.412C277.706 205.97 273.119 207.801 268.862 207.831C252.086 212.138 241.167 204.743 244.915 188.124C246.654 180.412 258.204 171.5 268.99 181.669C274.056 186.447 278.864 182.079 279.921 176.358C282.1 164.551 288.606 152.218 281.411 141.897C258.312 162.012 228.255 165.352 232.122 146.756C240.284 132.133 233.432 110.708 214.927 113.156C184.479 117.184 198.104 142.459 199.476 145.898C204.696 158.978 181.103 168.531 154.306 153.292C152.316 168.774 150.108 164.919 151.195 177.593Z" fill="#121212"/>
<path fill-rule="evenodd" clip-rule="evenodd" d="M154.306 153.292C152.315 168.78 150.106 164.916 151.195 177.608C149.814 177.695 183.305 172.113 184.601 196.853C185.128 206.887 175.496 210.379 167.279 213.149C162.284 214.833 161.911 218.509 152.845 218.711C149.643 218.782 155.777 237.941 156.324 249.446C173.831 258.42 193.178 242.684 189.223 238.789C176.843 226.594 191.897 209.337 209.329 210.413C223.805 211.308 231.941 231.859 223.622 241.063C213.458 252.307 230.118 258.09 248.598 254.096C265.948 250.345 277.902 239.974 277.761 215.412C277.706 205.97 273.119 207.801 268.861 207.831C252.086 212.138 241.167 204.743 244.915 188.124C246.654 180.412 258.204 171.5 268.99 181.669C274.056 186.447 278.864 182.079 279.921 176.358C282.1 164.551 288.606 152.218 281.411 141.897C258.312 162.012 228.255 165.352 232.122 146.756C240.284 132.133 233.432 110.708 214.927 113.156C184.479 117.184 198.104 142.459 199.476 145.898C204.696 158.978 181.103 168.531 154.306 153.292Z" fill="#7753FF"/>
<path fill-rule="evenodd" clip-rule="evenodd" d="M156.577 175.853C157.229 175.82 157.824 175.8 158.321 175.8C164.584 175.8 171.969 177.915 176.923 181.777C181.607 185.428 184.443 190.445 184.443 196.541C184.443 202.36 181.721 207.543 177.151 211.419C172.808 215.101 166.682 217.441 161.021 217.947C160.651 219.921 160.105 223.247 160.08 225.836C159.995 234.403 161.366 244.393 162.417 250.901C163.177 255.613 160.501 260.205 156.028 261.868C156.028 261.868 141.709 267.189 141.719 267.184C129.312 272.534 121.529 268.821 117.033 263.626C114.297 260.464 112.601 256.166 112.205 251.418C111.721 245.624 113.223 239.181 116.035 234.452C118.721 229.933 119.905 225.021 117.509 221.984C116.297 220.447 114.067 220.196 111.198 220.526C108.825 220.8 107.125 221.18 106.185 222.333C104.373 224.553 104.989 227.826 105.291 230.933C106.001 238.218 107.622 245.391 107.144 249.524C106.662 253.681 104.636 257.444 100.89 260.486C96.1942 264.297 87.4158 267.091 76.6198 267.455C58.2326 268.077 33.6646 262.292 19.1702 249.868C7.77662 240.101 1.78301 226.669 6.77101 209.328C8.67741 202.501 12.1078 198.38 15.8742 195.9C21.6486 192.1 28.9926 191.842 36.347 194.634C39.559 195.852 42.5358 196.83 45.2126 197.25C46.3934 197.435 47.4438 197.675 48.3078 197.308C48.7982 197.099 48.687 196.402 48.8998 195.667C49.5182 193.534 49.7574 190.803 49.7318 187.389C49.7014 183.253 49.1958 179.486 47.8918 176.579C47.4062 175.497 46.995 174.437 45.995 174.142C45.147 173.892 44.1638 174.118 43.0062 174.469C40.5038 175.229 37.7046 176.79 34.5006 179.12C25.867 185.396 19.075 184.109 14.771 181.294C10.823 178.712 7.51581 173.248 7.37181 165.32C7.21741 156.826 10.575 144.417 17.5486 133.821C28.5518 117.106 47.7014 104.78 73.7238 116.183C76.4846 117.394 78.5526 119.785 79.3518 122.691C80.151 125.597 79.5966 128.71 77.8422 131.161C74.831 135.37 72.427 140.254 71.4598 145.06C70.7734 148.472 70.7086 151.856 72.4766 154.547C73.9902 156.852 76.7334 158.396 80.651 159.433C85.3286 160.094 89.2518 160.35 91.5902 157.64C94.7486 153.981 94.8246 147.43 93.4566 137.343C92.955 133.646 94.5534 129.977 97.6022 127.827C100.651 125.677 104.643 125.403 107.957 127.115C125.35 136.105 139.342 140.319 151.064 140.931C153.716 141.07 156.204 142.257 157.979 144.232C159.754 146.208 160.671 148.807 160.527 151.459C160.08 159.718 157.874 167.842 156.577 175.853ZM145.622 186.328C145.605 174.766 149.888 162.98 150.542 150.918C137.729 150.247 122.377 145.825 103.366 135.999C107.19 164.194 96.5526 171.853 78.6902 169.254C54.7438 163.295 58.7462 140.666 69.7102 125.342C21.3222 104.139 3.72222 189.134 28.6198 171.031C50.1286 155.393 59.5926 168.366 59.7318 187.315C59.9006 210.307 48.5214 209.95 32.7982 203.983C25.9686 201.39 19.1038 202.308 16.3966 212.041C3.04782 258.285 95.0574 266.956 97.2102 248.374C98.2718 239.206 86.2646 213.331 110.054 210.591C127.955 208.53 133.112 225.299 124.63 239.563C119.557 248.093 121.261 265.256 137.97 257.91L152.544 252.494C150.209 238.022 146.519 207.41 158.071 208.031C165.029 208.406 174.443 203.711 174.443 196.541C174.443 189.371 165.287 185.8 158.321 185.8C154.098 185.8 147.357 187.283 145.622 186.328Z" fill="#121212"/>
<path fill-rule="evenodd" clip-rule="evenodd" d="M145.622 186.328C147.357 187.284 154.098 185.801 158.321 185.801C165.287 185.801 174.443 189.371 174.443 196.541C174.443 203.711 165.029 208.407 158.071 208.031C146.519 207.41 150.209 238.022 152.544 252.494L137.97 257.911C121.261 265.256 119.557 248.093 124.63 239.563C133.112 225.299 127.955 208.53 110.054 210.592C86.2645 213.331 98.2717 239.206 97.2101 248.374C95.0573 266.957 3.04774 258.285 16.3965 212.041C19.1037 202.308 25.9685 201.39 32.7981 203.983C48.5213 209.95 59.9005 210.308 59.7317 187.315C59.5925 168.366 50.1285 155.393 28.6197 171.031C3.72214 189.134 21.3221 104.139 69.7101 125.342C58.7461 140.666 54.7437 163.295 78.6901 169.254C96.5525 171.853 107.19 164.194 103.366 135.999C122.377 145.826 137.729 150.247 150.542 150.918C149.888 162.98 145.605 174.766 145.622 186.328Z" fill="#0EA5E9"/>
</g>
<defs>
<clipPath id="clip0_36_2">
<rect width="304" height="280" fill="white"/>
</clipPath>
</defs>
</svg>
